<?xml version="1.0" standalone="no"?>
<!DOCTYPE svg PUBLIC "-//W3C//DTD SVG 20010904//EN"
 "http://www.w3.org/TR/2001/REC-SVG-20010904/DTD/svg10.dtd">
<svg version="1.0" xmlns="http://www.w3.org/2000/svg"
 width="700.000000pt" height="700.000000pt" viewBox="0 0 700.000000 700.000000"
 preserveAspectRatio="xMidYMid meet">
<metadata>
Created by potrace 1.14, written by Peter Selinger 2001-2017
</metadata>
<g transform="translate(0.000000,700.000000) scale(0.100000,-0.100000)"
fill="#000000" stroke="none">
<path d="M1030 6440 c0 -5 5 -10 11 -10 5 0 7 5 4 10 -3 6 -8 10 -11 10 -2 0
-4 -4 -4 -10z"/>
<path d="M1095 6429 c-4 -6 -5 -12 -2 -15 2 -3 7 2 10 11 7 17 1 20 -8 4z"/>
<path d="M6069 6423 c-13 -16 -12 -17 4 -4 9 7 17 15 17 17 0 8 -8 3 -21 -13z"/>
<path d="M899 6418 c-1 -7 -1 -16 0 -20 0 -5 -14 -8 -33 -8 -19 0 -36 -5 -38
-11 -2 -5 -18 -11 -35 -11 -21 -1 -30 -5 -26 -12 4 -6 -1 -5 -10 2 -17 14 -42
8 -32 -8 3 -5 1 -11 -5 -15 -5 -3 -10 -1 -10 5 0 6 -5 8 -10 5 -6 -4 -8 -10
-6 -14 3 -4 -24 -23 -59 -42 -36 -19 -65 -38 -65 -43 0 -4 -12 -6 -27 -2 -16
3 -22 3 -16 0 9 -4 10 -11 3 -25 -9 -16 -14 -17 -32 -8 -15 8 -19 8 -13 0 4
-7 4 -19 1 -28 -5 -12 -9 -13 -21 -3 -13 11 -14 10 -9 -3 3 -8 -3 -24 -13 -34
-10 -10 -28 -32 -41 -48 -13 -17 -21 -24 -17 -17 3 6 1 12 -5 12 -6 0 -10 -8
-8 -17 3 -20 -9 -43 -22 -43 -5 0 -8 6 -6 13 1 6 1 9 -1 4 -3 -4 -9 -5 -13 -2
-5 3 -12 0 -16 -6 -4 -7 -3 -9 3 -6 6 4 17 -1 24 -10 10 -12 10 -14 2 -9 -9 5
-13 1 -13 -11 0 -11 -5 -24 -11 -30 -9 -9 -15 -29 -18 -55 -1 -5 -6 -8 -12 -8
-8 0 -7 6 2 18 12 15 12 16 -2 5 -9 -7 -19 -11 -23 -8 -3 3 -2 -1 4 -7 12 -15
13 -38 1 -57 -8 -13 -12 -13 -27 0 -17 13 -17 13 -2 -10 17 -24 14 -51 -4 -51
-7 0 -6 5 1 14 8 10 8 16 -3 25 -11 9 -16 9 -22 0 -4 -7 -3 -9 4 -5 6 3 13 2
16 -3 4 -5 2 -13 -4 -16 -8 -5 -7 -11 1 -21 6 -8 8 -21 4 -31 -5 -10 -7 -25
-6 -33 2 -13 1 -13 -8 0 -8 11 -10 4 -7 -28 3 -33 0 -42 -10 -38 -8 3 -14 1
-14 -4 0 -6 4 -10 9 -10 5 0 8 -8 6 -17 -2 -10 -4 -20 -4 -23 -1 -3 -6 2 -11
10 -6 9 -10 10 -10 3 0 -6 4 -15 10 -18 9 -6 4 -151 -6 -167 -3 -5 1 -8 8 -8
8 -1 7 -5 -5 -14 -10 -8 -14 -16 -9 -17 5 -2 11 -28 14 -56 5 -47 4 -51 -10
-35 -10 12 -10 10 2 -10 9 -15 11 -28 6 -30 -6 -2 -12 -13 -14 -24 -4 -17 0
-21 15 -17 11 3 19 0 19 -6 0 -7 -6 -9 -12 -5 -10 6 -10 4 -1 -7 15 -16 17
-33 3 -24 -6 3 -7 -1 -4 -9 3 -9 10 -14 14 -11 5 3 7 -8 5 -25 -2 -16 0 -30 4
-30 5 0 7 -8 6 -17 -2 -26 -16 -54 -24 -49 -4 3 -7 -3 -7 -13 0 -10 6 -18 13
-18 7 0 10 4 8 8 -8 11 6 40 16 34 4 -3 5 -13 2 -22 -4 -10 -2 -14 4 -10 5 3
10 0 10 -8 0 -8 -3 -12 -7 -10 -3 2 -12 -1 -20 -6 -13 -9 -13 -10 0 -8 31 3
42 -1 37 -15 -3 -8 -3 -17 1 -20 10 -10 11 -37 1 -30 -5 3 -9 1 -9 -3 0 -5 9
-14 20 -21 12 -7 18 -17 15 -22 -3 -5 -1 -12 5 -15 8 -5 8 -11 0 -20 -8 -9 -6
-14 5 -19 8 -3 15 -16 15 -28 0 -13 9 -36 20 -53 23 -34 26 -61 8 -69 -7 -3
-3 -3 10 0 12 3 22 1 22 -5 0 -6 -4 -11 -10 -11 -5 0 -10 -4 -10 -9 0 -5 6 -8
14 -7 8 0 15 -3 16 -9 1 -5 9 -18 17 -27 10 -11 12 -18 5 -18 -7 0 -12 5 -12
12 0 6 -2 9 -5 6 -10 -10 8 -39 20 -34 8 3 16 -2 19 -10 4 -9 2 -12 -5 -8 -7
4 -10 2 -8 -5 3 -7 9 -13 14 -13 6 -1 15 -8 22 -17 9 -12 9 -18 0 -26 -17 -14
-19 -32 -3 -38 10 -4 12 0 9 14 -3 10 0 19 6 19 6 0 11 -6 11 -14 0 -8 7 -17
16 -20 8 -3 12 -10 9 -16 -3 -5 -1 -10 4 -10 6 0 11 -7 11 -16 0 -9 5 -12 13
-8 8 5 7 2 -2 -9 -12 -15 -12 -17 2 -11 15 5 44 -31 39 -48 -1 -4 5 -5 13 -2
11 5 13 2 8 -12 -5 -14 -3 -16 12 -11 15 6 16 5 5 -8 -11 -13 -10 -14 3 -10 8
4 18 1 23 -6 4 -7 3 -10 -4 -5 -6 3 -14 2 -17 -4 -4 -6 -3 -10 2 -9 24 4 45
-3 63 -21 11 -11 22 -20 25 -20 3 0 8 0 11 0 4 0 2 -6 -4 -13 -8 -9 -3 -12 21
-12 28 0 35 -6 61 -54 23 -44 26 -55 15 -63 -10 -7 -7 -7 9 -3 16 5 22 2 22
-9 0 -10 -7 -13 -24 -10 -14 2 -27 0 -31 -6 -4 -6 1 -7 11 -3 12 4 15 3 10 -5
-4 -7 -2 -10 6 -7 17 7 22 -32 6 -41 -7 -5 -8 -2 -3 6 5 9 4 11 -4 6 -9 -6 -9
-11 0 -22 6 -8 9 -18 5 -21 -4 -4 -12 -1 -17 7 -9 12 -10 12 -5 -3 3 -10 6
-21 6 -23 0 -3 5 -2 12 2 7 5 8 3 2 -7 -5 -8 -10 -30 -11 -49 -2 -19 -5 -44
-7 -55 -2 -11 -5 -24 -5 -28 -1 -5 -4 -6 -9 -3 -4 2 -6 -12 -4 -33 3 -31 0
-39 -19 -47 -20 -9 -21 -11 -5 -17 10 -4 15 -3 11 3 -3 6 -1 10 5 10 7 0 9 -8
4 -22 -6 -21 -9 -35 -13 -76 0 -7 -5 -11 -9 -8 -4 2 -14 0 -22 -6 -12 -8 -12
-9 2 -4 10 3 20 1 23 -4 4 -6 0 -10 -7 -10 -9 0 -10 -3 -2 -8 6 -4 9 -16 7
-27 -2 -11 -5 -31 -6 -45 -1 -14 -5 -29 -7 -35 -3 -5 -5 -27 -5 -48 1 -31 -2
-36 -16 -32 -26 9 -33 -14 -12 -38 11 -12 18 -28 17 -34 -1 -7 -2 -18 -3 -24
0 -5 -7 -7 -13 -3 -10 6 -10 5 -1 -7 13 -16 12 -66 -2 -88 -5 -10 -4 -16 4
-19 9 -3 7 -10 -6 -25 -10 -11 -13 -18 -7 -14 8 4 11 -5 10 -28 -1 -29 -4 -34
-21 -30 -11 3 -14 2 -7 -1 6 -3 9 -11 6 -16 -4 -7 -2 -8 4 -4 7 4 12 2 12 -3
0 -6 -6 -11 -12 -11 -9 0 -10 -2 -2 -8 7 -4 12 -20 12 -36 l-1 -29 -19 24 -19
24 12 -27 c7 -16 17 -28 23 -28 6 -1 0 -7 -14 -16 l-25 -15 24 7 c23 6 23 5 8
-16 -16 -23 -12 -55 5 -44 7 4 7 0 0 -12 -5 -11 -7 -25 -5 -32 3 -7 -3 -20
-13 -28 -17 -14 -17 -15 -1 -10 11 3 17 0 17 -10 0 -9 -5 -12 -12 -8 -7 5 -8
3 -3 -6 14 -22 15 -61 2 -54 -8 5 -8 3 0 -6 10 -11 9 -16 -5 -27 -9 -8 -11
-12 -4 -8 7 4 13 0 13 -9 1 -9 2 -22 3 -28 2 -7 -1 -19 -4 -27 -4 -7 -4 -29 0
-47 5 -21 4 -37 -3 -41 -6 -4 -7 -1 -2 7 5 9 4 11 -4 6 -6 -4 -9 -12 -6 -17 6
-8 -9 -13 -28 -10 -5 1 -6 -3 -2 -9 4 -7 12 -7 25 0 25 14 30 13 24 -5 -4 -8
-11 -12 -17 -8 -6 3 -7 1 -3 -5 4 -7 1 -12 -8 -12 -8 0 -17 -4 -20 -9 -4 -5 3
-7 14 -4 16 4 18 1 14 -21 -2 -14 0 -26 5 -26 5 0 7 14 6 30 -1 17 1 30 5 30
4 0 6 -26 5 -58 -2 -40 3 -68 17 -96 11 -21 15 -35 9 -31 -6 3 -11 1 -11 -4 0
-6 7 -11 16 -11 10 0 14 -5 10 -16 -3 -8 -2 -13 2 -11 4 3 15 -6 25 -18 16
-23 16 -24 0 -34 -16 -9 -15 -10 7 -8 17 1 25 -3 25 -13 0 -8 11 -21 23 -28
16 -9 22 -20 19 -32 -3 -10 1 -21 9 -24 9 -3 11 1 8 12 -4 12 -2 11 7 -3 7
-11 19 -26 26 -33 7 -7 13 -18 13 -23 0 -6 4 -8 9 -4 11 6 25 -13 26 -34 0 -7
11 -20 25 -28 l25 -15 -25 21 c-14 11 -20 21 -13 21 6 0 21 -12 32 -26 12 -15
21 -24 21 -20 0 7 44 -29 76 -62 13 -13 21 -32 19 -42 -3 -18 10 -21 32 -7 8
5 11 -3 9 -28 -2 -19 1 -32 6 -29 5 3 6 14 3 25 -4 11 -2 19 4 19 6 0 11 -5
11 -11 0 -5 4 -8 9 -4 15 9 40 -24 36 -46 -3 -12 -2 -19 2 -16 3 4 13 -1 21
-11 9 -11 9 -8 -2 11 -9 15 -12 27 -6 27 6 0 13 -7 16 -15 4 -8 10 -13 14 -10
10 6 40 -22 40 -36 0 -6 -4 -8 -8 -5 -4 2 -8 -5 -8 -16 0 -20 0 -20 14 1 17
25 34 28 25 4 -5 -12 -2 -15 9 -11 8 4 28 -2 44 -13 16 -10 24 -19 18 -19 -5
0 -14 4 -20 10 -6 6 -10 2 -11 -13 0 -12 1 -17 3 -11 5 12 64 6 64 -7 0 -5 3
-8 8 -7 4 2 28 -12 54 -30 26 -17 51 -32 56 -32 4 0 19 -11 32 -25 12 -13 25
-24 29 -23 14 3 40 -15 35 -23 -3 -5 5 -9 17 -9 12 0 37 -11 55 -25 19 -14 35
-25 36 -24 2 1 13 -3 25 -9 14 -8 20 -20 19 -35 -2 -14 2 -24 10 -24 9 0 10 5
3 19 -6 12 -6 18 1 18 5 0 10 -5 10 -11 0 -5 4 -7 10 -4 5 3 10 1 10 -5 0 -6
4 -9 9 -5 5 3 13 0 17 -6 5 -8 3 -9 -6 -4 -9 5 -11 4 -6 -4 4 -6 16 -9 27 -6
10 4 19 2 19 -3 0 -9 50 -37 63 -34 4 1 7 -2 7 -7 0 -5 11 -12 25 -15 28 -7
34 -25 9 -22 -11 0 -18 -7 -19 -21 -1 -12 2 -20 7 -17 5 4 7 13 4 21 -4 10 -2
13 8 10 7 -3 19 0 25 6 8 8 11 8 11 -2 0 -7 4 -10 8 -7 4 2 14 1 22 -4 11 -7
11 -12 2 -23 -12 -14 -7 -27 12 -27 6 0 5 4 -2 9 -10 6 -10 10 3 21 12 10 15
10 15 -5 0 -11 5 -15 14 -12 18 7 54 -18 43 -30 -5 -4 -15 1 -23 11 -12 18
-14 18 -14 3 0 -11 11 -20 30 -24 17 -3 30 -12 30 -19 0 -8 5 -14 11 -14 6 0
9 -7 6 -14 -4 -11 -1 -13 11 -9 15 6 16 5 2 -12 -13 -17 -13 -18 1 -13 19 7
113 -86 106 -106 -4 -9 2 -13 16 -12 17 1 22 -5 21 -21 0 -13 2 -21 4 -18 3 3
12 -1 21 -8 14 -11 15 -10 1 8 -14 19 -14 19 3 6 10 -8 16 -20 13 -26 -3 -8 2
-11 13 -8 9 2 25 -5 35 -16 23 -25 14 -28 -10 -4 -15 16 -17 16 -12 2 4 -9 1
-23 -5 -30 -10 -10 -9 -11 3 -3 16 11 60 16 60 8 0 -3 -5 -14 -10 -24 -7 -13
-7 -21 0 -25 6 -4 10 -3 9 2 -4 21 2 33 16 33 13 0 14 -4 4 -23 -11 -21 -10
-21 6 -5 16 15 20 15 42 1 17 -11 22 -22 18 -37 -5 -18 -4 -19 5 -4 10 16 13
16 48 -5 20 -12 43 -28 50 -37 11 -13 12 -13 6 0 -7 12 -2 11 19 -3 15 -9 27
-15 27 -12 0 2 15 -4 33 -14 32 -18 86 -36 100 -33 4 1 7 -5 7 -13 0 -8 5 -15
11 -15 5 0 8 4 5 9 -4 5 7 4 23 -2 17 -6 28 -14 25 -18 -7 -12 23 -18 34 -7 6
6 16 7 24 2 15 -10 34 -14 66 -16 12 0 25 -4 28 -9 2 -4 12 -6 22 -3 14 5 15
4 2 -5 -13 -9 -13 -11 3 -11 9 0 17 5 17 11 0 5 5 7 10 4 8 -5 7 -11 -1 -21
-6 -8 -8 -14 -4 -14 4 0 13 7 19 16 9 11 18 13 36 6 14 -5 38 -8 53 -7 24 2
28 -1 23 -19 -5 -19 -4 -19 8 -4 12 16 14 16 31 0 18 -16 18 -16 6 1 -11 14
-11 17 3 17 10 0 16 -9 17 -22 l0 -23 10 24 c6 15 14 21 25 17 9 -3 19 -6 22
-6 4 0 0 -5 -8 -10 -10 -7 -11 -10 -2 -10 7 0 15 7 19 16 5 14 8 13 20 -7 8
-13 12 -16 9 -6 -6 19 10 24 17 5 4 -10 6 -10 6 0 1 17 31 15 31 -2 0 -8 4
-17 9 -20 5 -4 7 3 4 14 -3 12 0 20 6 20 7 0 9 -6 5 -12 -6 -10 -4 -10 7 -1
18 18 29 16 30 -4 0 -15 2 -15 9 2 6 13 9 15 9 5 1 -13 2 -13 11 0 5 8 12 12
15 8 4 -3 20 -2 36 2 16 5 27 5 24 0 -3 -4 2 -11 11 -14 8 -3 13 -2 10 3 -3 5
6 11 19 14 14 2 28 0 32 -6 3 -6 1 -7 -5 -3 -7 4 -12 2 -12 -3 0 -17 18 -13
29 7 9 15 11 15 21 -8 10 -23 10 -23 6 -2 -3 15 0 22 7 19 7 -3 11 -10 9 -16
-1 -7 2 -10 8 -6 6 3 8 10 5 15 -3 4 2 10 10 14 17 6 20 -15 4 -31 -8 -8 -7
-13 3 -18 7 -5 10 -5 6 0 -13 14 22 50 50 51 15 1 27 3 27 4 0 1 8 3 18 5 9 2
15 -1 11 -6 -3 -5 -2 -9 3 -10 43 -5 61 -5 57 2 -2 4 -13 6 -24 4 -11 -2 -20
0 -20 4 0 13 49 19 54 7 2 -6 5 -4 5 5 1 12 9 15 32 13 16 -2 28 0 25 5 -3 5
8 8 24 7 17 -1 30 1 30 5 0 13 44 18 57 7 11 -9 12 -7 6 8 -6 17 -5 18 12 4
11 -9 16 -10 11 -2 -5 8 0 12 14 12 12 0 19 4 16 9 -3 4 5 8 17 7 12 -1 27 5
33 13 9 11 12 12 19 1 5 -8 4 -11 -1 -7 -6 3 -11 -4 -11 -15 -2 -20 -1 -20 12
-2 7 10 11 22 9 26 -7 11 108 59 127 53 9 -3 20 -1 24 5 3 6 10 8 15 5 4 -3
11 2 14 11 6 15 4 15 -18 0 -32 -20 -42 -21 -26 -1 7 8 18 15 25 15 6 0 31 14
53 30 23 17 42 27 42 23 0 -5 4 -3 8 2 13 18 65 60 57 46 -5 -9 -3 -12 6 -9 8
3 14 9 14 15 0 11 125 123 138 123 5 0 6 4 2 9 -3 5 0 13 6 17 8 5 9 3 4 -6
-5 -9 -4 -11 3 -6 7 4 12 13 12 21 0 7 11 22 25 33 13 11 21 23 17 27 -4 5 -1
5 6 1 7 -4 12 -1 12 8 0 19 36 40 52 30 7 -5 8 -3 4 5 -5 7 -15 10 -23 7 -8
-3 -12 -2 -9 3 3 5 19 11 36 14 20 4 30 12 30 24 -1 17 -1 17 -11 1 -5 -10
-15 -18 -21 -18 -7 0 0 13 15 28 31 32 69 41 61 14 -2 -9 1 -5 8 9 12 25 14
26 38 12 24 -15 24 -14 5 1 l-20 17 20 12 c11 6 27 12 35 14 8 1 16 7 18 12 2
7 10 8 22 1 13 -7 21 -7 26 2 5 7 3 8 -6 3 -8 -5 -11 -3 -8 6 3 8 13 13 23 11
9 -2 14 1 11 6 -8 13 80 56 95 46 9 -5 10 -2 5 11 -5 14 -4 15 7 7 9 -8 17 -8
27 0 12 8 12 9 -2 4 -10 -3 -18 -1 -18 4 0 6 9 10 20 10 10 0 23 8 29 18 9 16
11 16 24 -2 11 -15 16 -16 22 -6 5 9 4 11 -3 6 -14 -8 -15 3 -3 23 7 11 11 10
20 -5 11 -17 11 -17 6 4 -5 16 -2 22 10 22 10 0 13 5 9 12 -5 8 0 7 11 -2 10
-8 16 -10 12 -3 -9 15 28 37 45 27 6 -4 8 -3 5 3 -3 5 8 20 25 33 17 12 28 18
24 11 -4 -6 -2 -11 3 -11 6 0 11 6 11 13 0 7 10 18 21 26 19 11 21 11 16 -4
-4 -9 -3 -14 3 -10 6 3 10 12 10 18 0 11 59 57 77 60 4 0 15 8 23 17 8 9 11
10 6 3 -6 -10 -4 -12 8 -7 9 3 16 14 16 23 0 14 2 14 10 1 8 -13 10 -12 10 2
0 10 17 29 39 42 21 14 51 36 66 50 15 14 34 26 40 26 7 0 16 7 19 16 4 9 11
12 18 7 19 -11 39 -13 32 -2 -3 5 -10 7 -15 4 -5 -4 -9 -2 -9 3 0 14 36 43 43
35 4 -3 7 2 7 13 0 16 2 17 10 4 8 -12 10 -12 10 -1 0 7 12 25 26 38 21 20 29
22 36 11 8 -10 9 -9 5 3 -3 10 4 26 18 39 20 18 27 21 39 11 10 -8 16 -9 21
-1 4 6 1 9 -6 8 -6 -2 -14 3 -17 11 -3 10 0 12 11 8 11 -4 14 -2 10 9 -3 7 -1
14 5 14 14 0 23 -26 16 -47 -5 -17 -5 -17 6 -1 8 13 8 23 -1 39 -9 18 -6 26
22 55 18 18 36 31 40 28 5 -3 6 1 3 9 -3 9 4 21 15 29 12 8 18 18 13 23 -4 4
0 6 9 2 11 -4 16 0 15 11 0 9 5 17 12 17 14 0 17 13 6 23 -4 4 -4 1 1 -7 6
-10 4 -12 -4 -7 -9 6 -9 12 2 24 8 10 18 27 21 39 4 13 10 23 14 23 4 0 8 10
8 23 1 12 6 39 12 60 6 23 6 39 0 43 -5 3 -1 13 9 21 10 8 13 12 7 9 -7 -3
-11 11 -13 41 0 25 -4 49 -6 53 -3 5 -1 11 5 15 5 3 10 11 10 16 0 6 -4 8 -8
5 -15 -9 -8 68 7 80 11 9 12 12 1 19 -9 6 -11 4 -5 -6 5 -8 4 -11 0 -6 -12 11
-15 148 -3 140 6 -3 5 4 -1 15 -10 18 -9 20 10 17 12 -3 18 -1 15 3 -7 7 -11
8 -37 11 -5 0 -7 6 -4 11 4 6 12 7 18 3 7 -4 6 0 -2 10 -7 9 -10 17 -5 17 5 0
2 5 -6 11 -12 9 -11 10 6 6 13 -3 21 1 21 10 0 8 -7 11 -17 8 -14 -5 -17 1
-16 37 1 24 -2 49 -7 56 -12 16 5 16 23 -1 12 -10 12 -9 2 4 -6 9 -8 20 -4 24
4 5 1 5 -5 1 -8 -5 -13 -1 -14 11 -1 10 -2 32 -4 50 -1 21 2 30 9 26 7 -4 7
-1 -1 7 -6 7 -9 19 -6 28 4 9 2 13 -4 9 -13 -8 -12 11 1 32 6 10 5 12 -2 7 -8
-5 -12 2 -12 19 0 18 4 24 13 19 9 -6 9 -4 1 7 -21 26 -26 56 -9 56 9 0 14 -6
11 -14 -4 -8 -1 -11 5 -8 13 8 6 30 -9 31 -7 1 -17 2 -23 3 -5 0 -7 6 -4 11 4
6 12 7 18 3 8 -5 8 -2 0 9 -7 8 -10 18 -6 21 3 4 1 7 -5 7 -7 0 -12 10 -11 23
0 34 -9 114 -15 135 -8 23 17 47 36 36 10 -5 10 -4 2 5 -9 10 -17 10 -32 2
-18 -9 -19 -7 -18 27 1 20 -3 43 -8 51 -8 11 -8 13 2 7 6 -4 12 -2 12 3 0 6
-4 11 -10 11 -14 0 -12 37 3 43 9 3 9 8 -2 18 -9 9 -11 9 -7 2 4 -7 3 -13 -3
-13 -5 0 -10 8 -10 18 0 9 -3 39 -6 66 -5 38 -4 47 7 40 7 -4 10 -4 6 1 -4 4
-2 15 5 24 11 14 10 14 -6 2 -29 -23 -32 -3 -3 24 15 14 23 25 18 25 -5 0 -15
-7 -22 -15 -17 -20 -25 -19 -27 5 -1 11 3 20 8 20 6 0 7 -5 3 -12 -5 -7 -3 -8
6 -3 10 6 7 12 -11 25 -21 16 -21 20 -9 36 13 16 13 17 0 9 -8 -4 -12 -5 -8 0
4 4 0 21 -8 37 -9 17 -11 27 -5 24 12 -8 15 7 4 18 -11 10 -12 37 -2 30 5 -3
9 0 9 5 0 6 5 11 11 11 6 0 7 -5 2 -12 -16 -26 -12 -38 8 -28 24 13 25 21 2
13 -14 -5 -15 -3 -6 7 6 7 9 19 6 26 -4 10 0 12 11 8 9 -3 13 -10 10 -15 -3
-5 2 -6 11 -3 14 6 14 8 -2 19 -17 12 -16 14 10 20 15 4 27 11 27 17 0 5 5 6
10 3 6 -4 8 -11 5 -16 -4 -5 -1 -9 5 -9 7 0 9 8 5 20 -4 13 -2 20 7 20 7 0 19
9 26 20 10 16 16 18 39 10 25 -9 26 -9 10 4 -15 12 -15 15 -3 26 9 7 25 9 38
5 21 -6 21 -6 6 6 -15 12 -15 16 -3 33 9 12 20 16 32 12 14 -6 15 -5 6 5 -17
17 38 71 64 63 15 -5 15 -4 3 4 -8 6 -18 8 -22 6 -4 -3 -5 2 -2 11 5 11 10 13
19 5 9 -8 12 -5 11 12 -1 13 1 25 4 28 11 11 60 90 55 90 -3 0 6 18 20 40 14
22 25 45 25 51 0 6 6 9 13 6 8 -3 14 1 14 9 0 7 -5 11 -10 7 -5 -3 -4 4 2 14
6 11 7 24 3 28 -4 5 1 5 10 2 10 -3 20 -1 24 5 4 7 3 8 -4 4 -7 -4 -12 -2 -12
3 0 6 5 11 10 11 6 0 8 11 4 25 -4 15 -2 25 5 25 6 0 8 -8 5 -17 -5 -15 -4
-15 4 -3 8 10 8 18 0 27 -13 17 4 17 22 1 8 -7 6 -3 -4 9 -11 13 -15 27 -10
35 9 14 11 19 13 43 0 8 6 15 12 15 5 0 7 -4 4 -10 -4 -6 1 -7 11 -3 13 5 15
3 9 -7 -6 -9 -4 -11 5 -5 10 6 10 11 -3 20 -9 7 -13 16 -9 20 4 5 1 5 -7 0 -9
-5 -12 -3 -9 6 3 8 11 13 18 11 11 -2 11 0 0 13 -12 14 -12 18 0 25 8 5 17 7
20 5 5 -3 6 44 0 55 -7 14 4 57 18 74 12 13 12 17 3 11 -11 -6 -13 -4 -8 9 4
10 7 27 7 37 0 11 5 17 10 14 6 -3 10 -1 10 4 0 6 -4 11 -9 11 -5 0 -8 8 -6
18 2 9 4 21 4 25 1 5 5 6 10 2 5 -3 13 0 17 6 4 7 3 10 -2 7 -5 -3 -15 0 -22
8 -7 8 -9 14 -3 14 5 0 8 34 7 75 -1 65 1 74 15 70 9 -3 22 3 30 12 11 15 11
16 -1 6 -18 -16 -34 -17 -24 -1 4 6 3 8 -3 5 -19 -12 -22 76 -4 91 14 12 14
13 -1 8 -13 -4 -18 0 -18 17 0 35 -6 82 -11 92 -3 6 -5 25 -4 42 2 22 -1 31
-9 26 -6 -4 -4 2 4 12 8 10 10 16 4 12 -11 -6 -18 8 -30 58 -1 6 -3 17 -5 25
-2 8 -10 21 -17 29 -9 10 -10 17 -3 24 6 6 11 16 11 21 0 6 -4 5 -9 -3 -7 -11
-13 -5 -26 24 -8 22 -21 43 -28 47 -9 6 -9 8 1 8 7 0 10 5 7 10 -4 6 -11 8
-16 5 -5 -4 -9 0 -9 7 0 7 -16 33 -35 57 -19 24 -35 48 -35 53 0 5 -4 6 -10 3
-6 -3 -10 1 -10 9 0 9 7 13 18 11 11 -2 19 3 19 11 0 8 -5 10 -11 6 -20 -15
-51 -8 -50 10 1 10 -1 17 -5 16 -20 -2 -31 4 -31 17 0 8 -5 15 -11 15 -5 0 -7
-6 -4 -12 4 -7 -3 -2 -15 12 -20 23 -21 25 -3 31 16 7 16 8 1 8 -9 1 -20 -3
-23 -9 -3 -5 -17 2 -31 18 -14 15 -23 20 -19 12 4 -8 -2 -5 -13 7 -11 12 -23
19 -27 15 -4 -4 -4 4 -1 18 6 21 5 22 -4 8 -15 -25 -34 -23 -20 1 15 29 12 38
-4 15 -14 -18 -16 -18 -43 -3 -15 9 -49 22 -76 30 -35 10 -46 17 -42 29 5 11
3 12 -6 3 -14 -14 -41 -5 -32 11 3 6 1 6 -8 -1 -7 -7 -22 -13 -34 -13 -16 0
-17 2 -5 10 10 7 11 10 2 10 -7 0 -15 -6 -18 -14 -3 -8 -12 -12 -20 -9 -8 3
-11 10 -7 16 3 6 1 7 -5 3 -7 -4 -12 -1 -12 6 0 10 -2 10 -9 0 -9 -16 -19 -15
-41 1 -8 6 -12 7 -8 3 4 -5 2 -16 -5 -24 -10 -13 -9 -14 3 -7 13 7 13 6 1 -6
-10 -11 -15 -11 -18 -1 -3 6 -9 12 -14 12 -6 0 -7 -4 -4 -10 3 -5 -1 -10 -9
-10 -26 0 -30 -1 -43 -12 -9 -7 -13 -7 -13 1 0 6 -5 11 -11 11 -5 0 -8 -4 -5
-9 3 -5 -4 -11 -17 -14 -12 -2 -31 -8 -42 -12 -15 -5 -17 -4 -6 3 16 12 25 46
9 36 -5 -3 -7 -8 -4 -11 7 -8 -34 -44 -55 -48 -10 -2 -23 4 -29 13 -5 9 -10
12 -10 5 0 -6 -9 -10 -20 -8 -11 2 -18 0 -15 -5 3 -5 14 -7 25 -5 11 2 20 0
20 -4 0 -11 -39 -24 -68 -23 -14 1 -20 -3 -16 -10 4 -7 3 -8 -4 -4 -7 4 -12 2
-12 -3 0 -6 -3 -10 -7 -9 -5 0 -16 -2 -26 -7 -12 -5 -23 -2 -33 11 -14 18 -14
17 -4 -5 10 -19 9 -25 -1 -32 -8 -5 -20 -7 -27 -4 -7 3 -15 -2 -18 -10 -4 -8
-10 -12 -15 -9 -5 3 -9 0 -9 -5 0 -6 -12 -11 -26 -11 -16 0 -23 -4 -18 -12 4
-7 3 -8 -4 -4 -7 4 -12 2 -12 -4 0 -7 -7 -10 -15 -6 -8 3 -14 0 -12 -7 1 -7
-6 -11 -17 -9 -10 2 -16 -1 -13 -5 3 -5 -3 -15 -15 -22 -11 -7 -17 -8 -13 -2
3 6 1 11 -4 11 -6 0 -11 -6 -11 -14 0 -15 -27 -30 -47 -27 -6 1 -15 -4 -19
-10 -5 -8 -3 -9 6 -4 9 5 11 4 6 -4 -4 -6 -12 -9 -17 -6 -5 4 -12 -1 -15 -9
-3 -9 -10 -13 -15 -10 -5 3 -9 -2 -9 -11 0 -9 -4 -14 -9 -11 -4 3 -16 -3 -26
-14 -10 -11 -21 -17 -25 -15 -4 3 -11 -2 -14 -11 -4 -9 -11 -12 -18 -7 -16 9
-42 14 -34 6 3 -4 0 -13 -7 -21 -9 -13 -9 -14 1 -8 6 4 12 3 12 -2 0 -6 -7
-13 -16 -16 -23 -9 -24 -8 -18 12 5 16 5 16 -6 -1 -6 -9 -9 -21 -6 -26 3 -5
-2 -12 -12 -16 -27 -12 -52 -16 -52 -7 0 4 -9 8 -20 9 -12 1 -29 10 -38 20 -9
11 -13 13 -7 5 7 -11 1 -10 -30 2 -22 9 -42 22 -46 28 -4 7 -8 6 -12 -3 -4
-10 -6 -9 -6 3 -1 9 -6 20 -13 24 -7 5 -9 2 -5 -8 4 -12 1 -14 -15 -10 -11 3
-23 13 -25 24 -6 19 -18 24 -27 9 -7 -11 -32 -9 -43 4 -4 4 -3 5 4 1 6 -3 14
-2 17 3 7 10 -13 9 -31 -2 -8 -5 -11 -1 -8 12 2 14 -1 18 -11 14 -7 -3 -11 -9
-8 -14 7 -12 -47 12 -64 28 -19 19 -27 16 -11 -4 12 -15 12 -16 -1 -8 -8 5
-24 11 -35 12 -10 2 -22 8 -25 14 -4 5 -14 7 -23 3 -11 -4 -19 0 -23 11 -6 13
-9 14 -16 3 -7 -9 -8 -7 -5 8 3 16 0 21 -12 19 -9 -1 -21 2 -27 7 -8 5 -14 3
-18 -7 -5 -15 -36 -22 -36 -7 0 4 -10 8 -22 9 -30 2 -93 11 -93 13 0 3 -59 11
-82 10 -13 0 -23 6 -23 15 0 7 -4 16 -9 19 -5 4 -7 -4 -4 -16 4 -19 3 -20 -6
-8 -6 8 -11 11 -11 6 0 -6 -7 -1 -16 10 -13 16 -15 16 -10 2 6 -21 -7 -24 -23
-4 -9 11 -9 15 1 19 9 4 9 6 1 6 -6 1 -18 -5 -25 -13 -14 -13 -98 -19 -98 -6
0 3 5 11 12 18 9 9 9 12 0 12 -7 0 -12 -5 -12 -11 0 -8 -6 -7 -17 2 -9 8 -14
9 -10 3 4 -7 0 -17 -8 -24 -12 -10 -16 -9 -21 3 -3 9 -13 18 -21 21 -13 5 -14
4 -3 -9 11 -13 9 -15 -13 -15 -14 0 -27 5 -29 11 -2 5 -11 11 -20 12 -9 2 -24
9 -34 17 -18 14 -18 13 0 -7 10 -13 22 -20 27 -18 4 3 10 2 13 -3 2 -4 -13 -8
-34 -8 -21 0 -37 3 -34 8 3 5 10 5 16 2 7 -4 8 -2 4 4 -7 11 -36 6 -36 -7 0
-4 -31 -7 -70 -6 -38 0 -70 3 -70 7 0 4 -7 4 -17 1 -12 -5 -14 -3 -9 8 6 11 4
10 -6 -1 -16 -19 -106 -21 -113 -2 -2 6 0 12 4 12 5 0 12 8 15 17 6 15 5 15
-13 -1 -11 -10 -18 -23 -15 -29 2 -7 -6 -12 -21 -12 -15 0 -25 6 -25 15 -1 13
-2 13 -13 0 -14 -17 -42 -26 -32 -10 3 5 1 10 -4 10 -6 0 -11 -5 -11 -10 0 -6
-11 -3 -24 5 -18 12 -26 13 -32 4 -4 -7 -3 -9 2 -6 6 3 15 2 22 -1 6 -4 -15
-8 -46 -8 -41 -1 -60 4 -69 15 -6 9 -15 13 -19 8 -4 -4 -2 -7 4 -7 19 0 14
-16 -5 -18 -78 -8 -129 -7 -135 2 -5 8 -8 7 -8 -1 0 -7 -4 -13 -10 -13 -5 0
-7 8 -4 18 4 13 2 13 -8 -3 -14 -21 -44 -26 -67 -11 -9 6 -12 5 -8 -1 4 -6 0
-14 -9 -17 -8 -3 -12 -2 -9 4 3 6 0 10 -7 10 -10 0 -9 3 2 11 13 9 13 10 0 6
-8 -2 -14 -11 -12 -21 4 -21 -6 -20 -26 2 -10 10 -13 12 -9 5 14 -20 1 -30
-36 -28 -39 2 -60 12 -52 25 3 5 1 11 -4 14 -13 8 -8 -19 6 -36 10 -11 8 -14
-10 -15 -12 -1 -33 -5 -45 -8 -13 -3 -21 -2 -18 3 3 5 -1 18 -10 28 -14 18
-15 18 -5 -2 15 -30 -11 -53 -36 -33 -9 8 -14 9 -10 2 11 -18 -15 -22 -48 -6
-26 12 -28 12 -12 0 27 -22 21 -27 -40 -28 -13 -1 -20 -5 -17 -10 3 -5 -2 -6
-10 -3 -9 4 -16 1 -16 -6 0 -9 -4 -9 -17 1 -11 9 -14 10 -9 2 5 -9 2 -11 -10
-6 -10 4 -15 2 -11 -4 3 -5 1 -10 -6 -10 -7 0 -22 -3 -35 -7 -12 -4 -21 -4
-20 1 2 4 -1 9 -7 10 -5 1 -9 -5 -7 -13 2 -8 -5 -14 -17 -14 -11 0 -23 -4 -26
-10 -3 -5 -14 -10 -23 -10 -9 0 -30 -7 -46 -15 -22 -12 -32 -12 -43 -4 -7 7
-16 9 -20 5 -3 -3 -1 -6 5 -6 7 0 12 -5 12 -11 0 -6 -9 -8 -21 -4 -15 5 -19 4
-15 -4 10 -16 -6 -13 -34 6 l-25 17 19 -22 c17 -19 15 -23 -9 -22 -3 0 -19 -7
-35 -15 -17 -9 -35 -13 -39 -10 -5 3 -11 -1 -14 -7 -7 -19 -62 14 -61 35 1 9
-2 15 -6 12 -12 -7 -40 5 -40 17 0 7 4 7 13 0 10 -8 13 -6 13 8 0 18 -2 18
-23 5 -21 -14 -23 -14 -23 0 0 8 -7 15 -16 15 -8 0 -13 4 -10 9 3 5 -1 12 -10
15 -8 3 -12 2 -9 -4 3 -6 1 -10 -6 -10 -6 0 -9 8 -6 20 3 11 0 23 -5 27 -6 3
-8 1 -4 -5 3 -6 2 -13 -4 -17 -9 -5 -15 15 -11 38 1 5 -3 6 -8 2 -6 -3 -8 -13
-5 -23 4 -10 2 -13 -3 -7 -4 6 -21 19 -36 29 -27 17 -28 18 -10 32 17 14 17
14 -4 5 -29 -14 -33 -14 -33 5 0 8 4 13 8 10 5 -3 9 1 9 8 0 8 -6 12 -14 9 -7
-3 -13 -13 -13 -22 0 -13 -2 -14 -9 -1 -6 8 -7 18 -4 24 3 5 1 6 -6 2 -6 -4
-9 -13 -5 -19 3 -7 -3 -3 -13 9 -10 11 -25 18 -33 16 -11 -4 -9 2 5 18 l20 24
-24 -17 c-18 -12 -27 -13 -42 -4 -13 8 -15 14 -7 24 6 8 8 16 4 20 -3 3 -6 1
-6 -5 0 -7 -9 -12 -21 -12 -12 0 -17 4 -14 11 4 6 1 10 -6 8 -27 -3 -40 1 -33
12 4 8 0 9 -15 4 -14 -4 -23 -1 -27 9 -3 9 -15 16 -25 16 -11 0 -41 11 -68 25
-27 13 -51 21 -55 18 -3 -4 -6 0 -6 7 0 7 -3 10 -7 7 -3 -4 -12 -2 -20 4 -7 6
-13 9 -13 6 0 -4 -19 2 -42 12 -24 10 -48 16 -55 14 -6 -2 -15 1 -19 8 -5 8
-3 10 7 4 12 -8 12 -6 0 8 -7 9 -19 17 -25 17 -6 0 -5 -4 3 -9 10 -6 10 -10 1
-16 -6 -4 -18 1 -26 11 -9 11 -13 13 -9 7 3 -7 1 -13 -4 -13 -6 0 -11 4 -11
10 0 5 -7 6 -17 3 -12 -5 -14 -3 -8 8 8 12 6 12 -8 1 -9 -8 -20 -12 -24 -9 -4
3 -26 8 -48 11 -22 4 -46 14 -54 24 -12 15 -12 14 -6 -8 7 -22 6 -23 -8 -12
-9 8 -13 20 -10 28 3 8 2 14 -1 14 -3 0 -7 -6 -7 -12z m5131 -29 c0 -12 -39
-17 -43 -5 -3 7 5 12 19 12 13 0 24 -3 24 -7z m-5280 -39 c0 -5 -2 -10 -4 -10
-3 0 -8 5 -11 10 -3 6 -1 10 4 10 6 0 11 -4 11 -10z m3295 -200 c3 -5 1 -10
-4 -10 -6 0 -11 5 -11 10 0 6 2 10 4 10 3 0 8 -4 11 -10z m385 -68 c0 -11 -3
-12 -13 -3 -8 6 -17 8 -20 4 -4 -3 -7 -1 -7 5 0 6 9 10 20 9 11 -1 20 -8 20
-15z m670 -112 c0 -5 -5 -10 -11 -10 -5 0 -7 5 -4 10 3 6 8 10 11 10 2 0 4 -4
4 -10z m-4100 -295 c0 -8 -6 -16 -12 -19 -7 -2 -4 -4 7 -2 11 1 29 7 39 13 33
19 78 -9 60 -38 -3 -5 0 -9 5 -9 6 0 11 8 11 17 0 9 3 13 7 9 7 -6 8 -12 16
-48 2 -10 6 -20 10 -23 4 -3 5 -2 2 2 -3 3 5 11 18 18 18 9 25 8 40 -8 9 -11
17 -16 17 -11 0 5 5 1 11 -9 6 -9 15 -14 21 -11 7 4 8 2 4 -5 -6 -9 -11 -9
-22 0 -12 10 -13 9 -8 -5 4 -11 14 -16 26 -13 11 3 22 0 25 -9 3 -8 11 -14 17
-14 7 0 13 -7 13 -17 0 -12 -6 -10 -23 10 -12 14 -25 23 -28 20 -3 -4 3 -12
14 -20 11 -8 20 -19 20 -25 0 -7 -5 -7 -14 1 -10 9 -15 8 -19 -3 -4 -10 -1
-13 8 -10 10 4 13 -1 9 -20 -2 -14 0 -26 5 -26 6 0 8 9 6 20 -2 11 1 22 6 26
15 9 24 -5 12 -17 -6 -6 -9 -18 -6 -25 5 -14 -7 -18 -37 -14 -12 1 -12 -1 1
-12 12 -9 15 -19 9 -33 -6 -14 -9 -16 -10 -5 -2 8 -2 18 -1 22 0 4 -7 4 -16 1
-11 -4 -13 -8 -5 -11 18 -6 14 -27 -8 -47 -19 -17 -18 -41 1 -30 5 4 9 2 9 -3
0 -17 -13 -22 -27 -10 -11 9 -12 7 -7 -7 6 -14 4 -16 -7 -10 -8 4 -11 5 -7 1
4 -5 3 -19 -3 -33 -5 -14 -5 -22 0 -19 5 4 8 0 7 -6 -4 -21 -40 -78 -49 -78
-5 0 -5 -5 -1 -12 5 -7 3 -8 -6 -3 -10 6 -12 4 -7 -8 3 -8 -1 -21 -8 -27 -8
-7 -13 -16 -10 -20 2 -4 -5 -16 -17 -26 -19 -17 -21 -17 -15 -1 4 9 2 17 -3
17 -13 0 -13 -23 -1 -36 6 -5 4 -16 -4 -28 -13 -17 -17 -17 -32 -5 -16 12 -17
12 -7 -1 15 -20 9 -51 -13 -68 -10 -7 -18 -17 -18 -22 0 -4 -4 -12 -9 -17 -5
-5 -6 -3 -2 5 4 6 2 12 -3 12 -11 0 -15 -13 -12 -40 2 -13 1 -13 -9 0 -25 35
-29 47 -15 47 7 0 11 -7 8 -16 -4 -14 -3 -14 5 -1 12 16 6 33 -9 25 -5 -4 -9
-2 -9 4 0 5 6 12 13 14 9 4 9 6 0 6 -6 1 -15 -4 -18 -9 -5 -8 -11 -8 -19 -1
-9 8 -13 7 -13 -4 0 -8 5 -11 10 -8 6 4 8 -1 4 -11 -4 -10 -3 -15 3 -11 6 3
10 1 10 -4 0 -17 -30 -13 -31 4 -2 24 -4 29 -13 43 -4 8 -2 20 6 29 11 15 11
16 -6 10 -16 -6 -17 -5 -6 8 11 13 10 14 -2 10 -9 -4 -15 0 -15 9 0 8 4 13 9
10 13 -8 9 6 -6 21 -8 8 -12 27 -10 45 2 17 0 29 -4 26 -9 -6 -10 -4 -14 64
-2 25 -7 50 -11 56 -8 14 20 27 35 17 7 -4 8 -1 4 6 -5 7 -14 10 -22 7 -7 -3
-16 -1 -19 4 -6 9 9 15 29 11 5 -1 4 5 -4 13 -8 11 -9 16 -1 16 6 0 11 5 11
11 0 8 -5 8 -15 -1 -8 -7 -12 -16 -9 -21 3 -5 1 -9 -4 -9 -5 0 -9 11 -9 25 0
16 4 22 11 18 8 -5 8 -3 0 8 -15 20 -15 59 -1 59 8 0 9 3 2 8 -12 8 -14 133
-2 125 4 -2 5 8 3 23 -3 15 -2 32 2 38 4 6 7 13 8 16 12 38 18 49 26 44 5 -3
1 -15 -9 -27 -16 -19 -16 -20 0 -8 16 12 22 9 18 -12 -1 -5 3 -6 8 -3 11 7 9
24 -7 52 -9 17 -8 25 8 42 11 12 28 19 40 17 11 -2 22 1 26 6 7 12 34 -8 34
-26z m5085 3 c0 -6 6 -13 14 -16 9 -3 11 0 6 8 -5 9 -4 11 4 6 6 -4 9 -12 6
-17 -4 -5 -1 -9 5 -9 6 0 8 -5 4 -11 -4 -8 -9 -7 -15 2 -6 10 -8 7 -6 -8 1
-18 4 -20 22 -11 11 6 17 7 13 3 -4 -5 -3 -14 2 -20 7 -9 6 -16 -5 -25 -8 -7
-15 -19 -15 -27 0 -8 -4 -12 -9 -8 -5 3 -12 2 -15 -3 -3 -5 2 -9 11 -9 9 0 18
9 21 19 2 10 8 18 13 18 9 0 12 -10 12 -42 0 -10 3 -18 6 -18 4 0 7 -13 7 -30
0 -16 -3 -30 -8 -30 -4 0 -8 2 -8 4 0 2 -3 12 -7 22 -4 12 -3 15 5 10 8 -5 10
-2 5 10 -5 14 -7 14 -15 1 -9 -17 10 -69 23 -62 4 3 7 -8 7 -25 -1 -16 -6 -30
-12 -30 -8 0 -8 -2 0 -8 6 -4 10 -37 10 -79 -1 -48 -4 -68 -11 -63 -7 6 -11 2
-11 -10 0 -10 3 -17 6 -15 3 2 6 -10 6 -26 1 -16 -3 -29 -8 -29 -5 0 -6 6 -2
13 4 6 4 9 -1 5 -4 -4 -15 -2 -23 5 -13 11 -14 9 -1 -10 8 -13 17 -23 21 -23
5 0 8 -5 8 -11 0 -6 -10 -8 -22 -5 -13 3 -17 3 -10 0 6 -3 10 -10 7 -15 -4 -5
2 -6 12 -2 15 5 16 3 6 -8 -7 -7 -13 -17 -13 -22 0 -4 6 -5 13 -1 9 6 9 5 0
-8 -7 -8 -9 -19 -5 -23 4 -5 1 -5 -6 -1 -7 4 -9 12 -6 18 4 7 2 8 -5 4 -6 -4
-9 -11 -6 -16 3 -5 1 -20 -5 -32 -11 -22 -10 -22 4 -4 9 11 16 15 16 9 0 -7
-5 -15 -10 -18 -6 -3 -8 -17 -6 -30 2 -13 1 -26 -2 -30 -4 -4 -7 -10 -8 -13
-2 -18 -17 -42 -26 -42 -7 0 -6 5 1 13 6 8 7 17 3 21 -4 4 1 13 10 20 15 11
15 13 -5 26 -20 12 -21 12 -9 -3 9 -11 10 -17 2 -22 -6 -4 -9 -13 -6 -20 3 -8
-3 -19 -11 -27 -15 -11 -16 -11 -10 6 7 17 6 17 -10 5 -15 -12 -16 -12 -10 4
3 9 2 17 -3 17 -6 0 -10 -2 -10 -4 0 -2 -2 -11 -5 -19 -3 -7 0 -14 7 -15 20
-1 60 -11 65 -16 2 -2 0 -7 -6 -11 -6 -3 -11 -1 -11 6 0 9 -4 9 -15 -1 -8 -7
-20 -8 -27 -4 -7 5 -17 9 -22 9 -5 0 -11 15 -12 33 -1 18 2 30 7 27 5 -4 9 -1
9 5 0 7 -6 10 -14 7 -7 -3 -19 0 -27 6 -7 7 -5 0 4 -15 10 -16 14 -28 10 -28
-8 0 -19 15 -51 70 -10 18 -10 20 -1 9 14 -16 52 -23 43 -7 -3 5 -9 6 -14 3
-5 -3 -12 1 -17 8 -4 7 -16 17 -26 20 -10 4 -17 13 -15 19 3 7 -3 19 -13 28
-10 8 -19 22 -21 30 -2 8 -11 23 -20 34 -11 12 -14 23 -8 31 5 6 5 16 -2 25
-8 12 -9 11 -4 -4 6 -16 4 -17 -9 -6 -12 10 -13 15 -3 28 7 8 11 18 10 21 -29
50 -32 60 -21 76 5 7 -1 11 -14 12 -12 1 -17 -1 -12 -5 6 -4 10 -14 10 -22 -1
-8 3 -20 8 -27 5 -7 5 -18 1 -24 -4 -7 -3 -9 3 -6 5 3 10 0 10 -8 0 -11 -4
-12 -14 -4 -7 6 -13 20 -13 30 0 11 -5 19 -11 19 -5 0 -8 4 -5 9 3 4 -3 18
-14 31 -10 12 -16 28 -13 36 3 8 0 14 -7 14 -6 0 -8 5 -5 10 3 6 0 10 -7 10
-8 1 -6 6 6 15 11 8 16 18 12 22 -4 4 -11 1 -16 -7 -11 -17 -21 -10 -22 16 -1
32 6 48 27 61 19 11 19 12 -2 10 -21 -1 -27 -9 -24 -29 0 -5 -3 -8 -8 -8 -5 0
-8 11 -7 24 0 13 5 22 10 18 5 -3 7 2 3 11 -3 8 1 21 9 27 8 7 14 9 14 4 0 -5
7 2 16 14 15 22 17 22 29 5 10 -13 17 -15 25 -7 9 9 9 14 -1 19 -8 5 -10 4 -5
-3 4 -7 2 -12 -3 -12 -6 0 -11 9 -11 20 0 17 3 19 19 10 22 -11 40 4 20 16 -8
5 -9 3 -4 -6 5 -9 4 -11 -4 -6 -17 11 -4 25 17 19 11 -2 24 3 32 14 12 15 12
16 0 6 -8 -7 -18 -13 -24 -13 -5 0 -1 6 9 14 17 12 24 12 50 -1 l30 -14 -25
21 c-25 21 -25 22 -2 17 12 -3 20 -2 17 2 -2 5 7 13 21 20 15 6 23 7 19 1 -10
-17 7 -11 20 6 13 18 75 29 75 13 0 -6 5 -7 10 -4 6 4 7 12 4 18 -4 7 -2 7 7
-1 8 -7 14 -18 14 -24z m-5055 3 c0 -6 -4 -13 -10 -16 -5 -3 -10 1 -10 9 0 9
5 16 10 16 6 0 10 -4 10 -9z m120 -62 c0 -5 5 -7 10 -4 6 3 10 1 10 -4 0 -17
-27 -13 -34 4 -3 8 -1 15 4 15 6 0 10 -5 10 -11z m110 -289 c0 -5 -10 -15 -22
-21 -23 -12 -23 -12 -4 10 21 23 26 26 26 11z m-1055 -80 c-3 -5 -11 -10 -16
-10 -6 0 -7 5 -4 10 3 6 11 10 16 10 6 0 7 -4 4 -10z m1007 -12 c-7 -7 -12 -8
-12 -2 0 14 12 26 19 19 2 -3 -1 -11 -7 -17z m5558 -215 c0 -5 -5 -15 -10 -23
-7 -12 -9 -10 -7 8 1 19 17 33 17 15z m-5816 -179 c3 -8 2 -12 -4 -9 -6 3 -10
10 -10 16 0 14 7 11 14 -7z m5116 2 c0 -3 -4 -8 -10 -11 -5 -3 -10 -1 -10 4 0
6 5 11 10 11 6 0 10 -2 10 -4z m-3513 -276 c13 0 23 -4 23 -9 0 -10 -31 -7
-53 5 -9 5 -9 4 -1 -5 16 -17 46 -21 63 -7 12 9 13 8 6 -3 -6 -11 -4 -13 9 -8
12 5 16 3 13 -5 -2 -7 -14 -12 -26 -11 -11 2 -21 -1 -21 -5 0 -15 34 -10 54 7
11 9 16 10 12 3 -5 -9 -3 -12 6 -10 18 4 77 -43 61 -49 -7 -3 -13 -9 -13 -15
0 -6 6 -5 15 2 9 7 18 10 22 6 4 -3 -2 -13 -13 -22 -10 -8 -13 -13 -7 -9 7 3
22 -3 34 -14 12 -11 27 -17 35 -14 8 3 14 -1 14 -9 0 -7 9 -19 20 -26 11 -7
20 -17 20 -23 0 -5 9 -19 20 -31 13 -15 17 -25 10 -33 -7 -8 -2 -16 17 -26 14
-8 32 -28 40 -46 16 -40 16 -46 1 -37 -7 4 -8 3 -4 -5 6 -9 11 -9 22 0 11 9
14 8 14 -5 0 -9 4 -16 9 -16 5 0 8 -13 7 -30 -2 -21 1 -27 10 -19 11 9 21 -2
29 -33 2 -5 4 -11 5 -15 2 -5 4 -15 4 -23 1 -8 8 -14 15 -12 7 1 9 -2 5 -9 -3
-6 0 -16 7 -21 12 -8 11 -9 -1 -5 -8 2 -21 -2 -28 -10 -8 -7 -18 -11 -23 -8
-5 4 -9 0 -9 -7 0 -9 -3 -9 -10 2 -8 13 -10 13 -10 1 0 -11 -4 -10 -14 4 -11
15 -17 17 -28 7 -8 -6 -19 -8 -23 -4 -5 4 -5 1 0 -6 5 -10 10 -11 18 -3 15 15
24 14 24 -3 0 -10 -9 -13 -29 -11 -15 2 -28 -1 -28 -7 0 -5 -9 0 -20 13 -10
13 -19 20 -20 15 0 -5 -8 -2 -17 5 -15 12 -16 12 -8 -1 11 -17 17 -50 10 -50
-2 0 -11 12 -20 28 l-15 27 4 -25 4 -26 -97 2 c-117 2 -114 2 -106 14 3 6 -1
7 -9 4 -9 -3 -13 -11 -9 -18 4 -8 2 -8 -7 1 -7 6 -20 9 -29 5 -14 -5 -14 -4
-1 13 14 17 14 17 -6 7 -17 -9 -43 -10 -64 -2 -3 1 -8 2 -12 1 -5 0 -8 4 -8
10 0 6 -9 8 -20 4 -16 -5 -19 -3 -13 12 3 10 3 15 -2 11 -4 -4 -15 -2 -23 5
-13 9 -14 9 -8 0 10 -17 1 -16 -37 3 -51 27 -116 84 -148 131 -17 24 -27 43
-24 43 3 0 3 6 -2 13 -11 16 -11 29 -1 49 5 10 4 20 -4 24 -6 4 -8 3 -4 -4 3
-6 3 -13 -2 -16 -4 -2 -8 11 -8 29 0 18 4 31 8 29 4 -3 7 6 6 18 -2 39 2 48
16 42 10 -4 12 2 9 20 -3 15 -1 26 6 26 5 0 8 -8 5 -17 -5 -17 -5 -17 6 -1 6
10 18 15 28 12 14 -5 14 -4 2 4 -8 6 -17 9 -21 6 -4 -2 -11 1 -15 7 -4 7 -3 9
4 5 6 -3 13 2 17 13 10 32 82 91 102 84 10 -3 15 -3 11 2 -12 13 12 35 38 35
13 0 24 6 24 13 1 6 6 2 13 -11 9 -16 16 -19 24 -11 14 14 47 18 54 7 3 -5 9
-3 12 5 4 11 -1 14 -21 12 -15 -2 -35 -6 -44 -10 -11 -4 -18 -3 -18 4 0 12 4
13 49 15 16 0 33 4 37 9 4 4 12 3 18 -3 5 -5 20 -10 33 -10z m2027 -3 c11 -2
20 -13 21 -25 1 -12 5 -25 10 -29 4 -5 4 2 1 14 -4 12 -2 24 4 28 5 3 10 -1
10 -10 0 -12 6 -15 23 -10 l22 6 -23 -20 c-12 -11 -18 -22 -13 -25 5 -3 12 1
15 10 7 17 40 11 64 -12 18 -19 7 -18 -23 2 -14 9 -25 12 -25 8 0 -10 48 -34
68 -34 8 0 12 -6 9 -14 -3 -8 1 -20 9 -26 8 -7 14 -19 14 -26 0 -8 5 -14 10
-14 7 0 7 6 0 20 -7 14 -7 20 0 20 5 0 10 -7 10 -15 0 -7 8 -19 18 -24 9 -6
13 -11 9 -11 -4 0 -2 -10 5 -22 7 -13 11 -31 9 -40 -1 -10 4 -18 11 -18 9 0 9
-3 -2 -10 -13 -9 -13 -11 0 -21 13 -9 13 -10 -2 -5 -13 4 -15 1 -11 -11 5 -12
3 -14 -7 -8 -9 5 -11 4 -6 -4 6 -9 11 -9 22 0 10 8 14 8 14 0 0 -6 -4 -11 -10
-11 -6 0 -9 -3 -8 -7 5 -18 -12 -73 -23 -73 -8 0 -8 4 1 15 14 17 5 35 -18 34
-15 -1 -15 -2 1 -6 21 -5 21 -8 1 -37 -10 -16 -12 -26 -5 -31 7 -4 7 -10 -2
-19 -6 -8 -15 -12 -19 -9 -5 2 -8 -2 -8 -10 0 -7 -12 -24 -27 -38 -14 -13 -23
-18 -19 -11 4 6 3 12 -3 12 -5 0 -12 -8 -15 -18 -6 -17 -80 -57 -103 -55 -7 0
-13 -4 -13 -9 0 -6 -9 -8 -20 -5 -10 3 -20 1 -22 -3 -2 -5 -14 -11 -28 -14
-14 -3 -37 -8 -52 -11 -17 -3 -28 -1 -28 5 0 6 -5 8 -10 5 -6 -4 -8 -10 -6
-14 6 -10 -106 -7 -123 3 -10 6 -12 5 -7 -3 5 -8 -5 -10 -36 -7 -24 2 -52 5
-63 5 -17 1 -17 3 -5 11 8 5 10 10 5 10 -6 0 -16 -5 -23 -12 -9 -9 -12 -9 -12
0 0 7 -5 12 -11 12 -5 0 -7 -4 -4 -10 3 -6 -1 -7 -9 -4 -9 3 -13 11 -9 18 4 6
-1 5 -11 -3 -12 -10 -20 -11 -28 -3 -6 6 -17 8 -24 5 -8 -3 -14 0 -14 7 0 6 4
9 9 5 5 -3 12 -1 15 4 4 5 -1 8 -10 7 -8 -1 -20 -9 -25 -17 -7 -11 -9 -11 -9
-1 0 7 -4 11 -9 7 -5 -3 -12 -1 -16 5 -4 6 -11 7 -17 4 -6 -4 -8 -2 -4 4 3 5
3 12 -1 15 -5 2 -2 2 5 1 6 -2 12 1 12 7 0 6 8 1 18 -11 16 -20 20 -21 25 -7
4 11 2 14 -9 10 -7 -3 -14 0 -14 6 0 6 5 11 10 11 6 0 10 5 10 11 0 6 -5 7
-12 2 -16 -9 -48 -15 -48 -7 0 6 30 64 33 64 2 0 3 -9 3 -19 0 -11 -3 -18 -7
-15 -4 2 -10 -3 -13 -11 -4 -12 -2 -13 13 -6 13 7 17 20 15 43 -2 33 10 61 41
91 8 9 16 19 16 22 -1 23 13 34 30 24 11 -5 16 -15 13 -21 -5 -7 -2 -8 5 -3 9
5 7 13 -8 29 -21 22 -21 23 -3 44 11 12 23 18 27 14 5 -4 5 1 2 11 -4 9 -2 17
3 17 6 0 10 6 10 13 0 19 45 38 58 25 6 -6 12 -6 17 3 5 7 4 10 -3 5 -6 -3
-15 2 -21 11 -6 10 -11 12 -11 6 0 -7 -6 -13 -12 -13 -7 1 -2 9 10 20 17 14
29 17 41 10 13 -6 18 -5 18 4 0 8 -10 12 -24 10 -13 -1 -21 2 -17 7 3 5 12 9
20 9 8 0 13 4 10 9 -3 5 1 14 9 21 8 7 15 9 15 4 0 -5 6 2 13 16 8 14 18 24
24 23 5 -1 15 7 23 17 12 17 15 17 39 3 24 -14 25 -14 7 1 -17 13 -18 18 -6
29 10 9 11 9 6 0 -5 -9 -2 -11 8 -7 9 3 16 1 16 -5 0 -6 5 -11 12 -11 6 0 4 8
-6 19 -17 18 -16 20 6 27 13 4 26 8 30 9 3 0 9 3 13 6 6 7 104 4 139 -4z
m-1827 -132 c8 -9 13 -18 11 -21 -3 -2 -13 5 -23 16 -21 23 -11 27 12 5z
m2013 5 c0 -5 -2 -10 -4 -10 -3 0 -8 5 -11 10 -3 6 -1 10 4 10 6 0 11 -4 11
-10z m-1880 -170 c0 -5 -2 -10 -4 -10 -3 0 -8 5 -11 10 -3 6 -1 10 4 10 6 0
11 -4 11 -10z m-2078 -95 c10 2 17 0 17 -3 -1 -4 -1 -9 1 -12 1 -3 3 -15 6
-27 7 -39 -15 -35 -36 6 -19 39 -28 68 -12 45 4 -6 15 -10 24 -9z m2043 -243
c-8 -8 -25 10 -19 20 4 6 9 5 15 -3 4 -7 6 -15 4 -17z m722 -386 c-1 -5 4 -11
12 -14 8 -2 11 0 8 5 -3 5 1 10 9 10 9 0 13 -6 9 -15 -4 -12 -3 -12 9 -3 11 9
20 9 34 2 11 -6 22 -7 26 -4 3 3 6 1 6 -6 0 -6 8 -11 18 -9 10 2 17 -3 17 -14
0 -28 20 -41 34 -24 11 13 15 13 33 -2 23 -19 58 -54 73 -74 6 -7 16 -21 24
-31 12 -15 10 -18 -10 -26 -24 -10 -24 -10 4 -10 15 -1 27 -6 27 -12 0 -5 -4
-7 -10 -4 -6 3 -7 -1 -4 -9 3 -9 11 -13 17 -9 6 4 8 0 4 -9 -3 -9 -3 -19 1
-22 3 -4 6 -15 7 -26 2 -19 1 -19 -18 -3 -19 18 -19 17 -6 -4 8 -13 17 -23 22
-23 4 0 0 -11 -9 -25 -9 -14 -12 -25 -8 -25 5 0 2 -5 -6 -11 -12 -8 -12 -10
-1 -7 8 2 15 12 17 22 4 31 12 28 10 -3 0 -17 -4 -31 -8 -31 -4 0 -6 -12 -5
-27 1 -18 -3 -27 -10 -25 -7 1 -13 -2 -13 -6 0 -4 6 -14 13 -21 10 -10 9 -12
-3 -9 -8 2 -14 -2 -13 -9 2 -7 -10 -10 -32 -9 -19 2 -32 -1 -29 -5 3 -5 0 -9
-5 -9 -6 0 -11 -9 -11 -20 0 -23 -10 -25 -29 -7 -12 10 -13 8 -7 -8 4 -11 4
-16 0 -12 -4 4 -14 1 -22 -6 -13 -9 -14 -9 -8 1 4 6 4 12 -1 13 -4 0 -18 2
-30 3 -14 2 -19 -2 -16 -11 4 -10 9 -11 19 -2 10 8 14 8 14 0 0 -6 -6 -12 -12
-13 -36 -4 -44 -2 -50 12 -5 11 -7 9 -7 -7 -1 -16 -7 -23 -21 -23 -17 0 -20
-6 -18 -34 1 -19 -4 -41 -10 -49 -10 -12 -9 -16 4 -21 14 -5 14 -9 3 -23 -8
-10 -9 -14 -2 -10 14 8 93 -21 93 -34 0 -5 3 -8 8 -8 19 3 32 -2 32 -12 0 -8
-6 -7 -17 2 -15 13 -15 12 -3 -8 12 -19 15 -20 25 -6 9 12 14 13 19 4 4 -6 12
-9 17 -6 5 4 9 2 9 -3 0 -6 11 -13 25 -16 14 -4 25 -11 25 -17 0 -6 4 -7 10
-4 5 3 15 -3 21 -14 7 -10 18 -17 25 -14 6 2 21 -6 33 -18 12 -13 21 -19 21
-13 0 5 5 2 10 -6 5 -8 13 -15 19 -15 24 0 181 -129 181 -149 0 -6 -5 -4 -10
4 -5 8 -10 10 -10 4 0 -19 13 -24 28 -12 12 10 14 9 10 -7 -2 -11 -10 -19 -17
-17 -7 1 -9 -2 -6 -8 5 -8 12 -7 23 3 15 12 19 11 34 -4 16 -17 16 -19 0 -29
-15 -10 -15 -10 3 -6 20 5 47 -5 46 -18 -3 -19 0 -27 8 -22 5 3 14 -1 21 -9 7
-8 9 -15 5 -15 -4 0 3 -8 15 -18 21 -17 21 -19 5 -35 -9 -9 -12 -17 -6 -17 5
0 13 5 16 10 10 16 20 5 56 -58 54 -93 58 -102 48 -102 -5 0 -9 5 -9 11 0 5
-4 7 -10 4 -12 -7 -14 -26 -2 -24 4 1 16 1 26 0 19 -1 19 -1 0 -23 -11 -13
-12 -17 -3 -11 13 10 18 7 31 -23 12 -27 13 -34 3 -30 -7 2 -16 -1 -19 -9 -3
-10 0 -12 11 -8 12 5 14 3 8 -8 -7 -11 -5 -11 10 1 17 13 18 13 13 -1 -4 -9
-1 -22 5 -28 9 -9 7 -11 -8 -6 -19 6 -19 6 -2 -8 10 -9 18 -30 19 -51 1 -20 4
-36 8 -36 4 0 7 -22 6 -50 0 -51 -4 -58 -22 -40 -7 7 -11 6 -11 -4 0 -8 3 -15
6 -14 20 2 31 -4 31 -17 0 -8 -5 -15 -11 -15 -5 0 -7 5 -4 10 3 6 2 10 -3 10
-6 0 -13 -7 -16 -16 -3 -8 -2 -12 4 -9 6 3 10 1 10 -5 0 -6 5 -8 10 -5 6 3 10
-1 10 -9 0 -19 -11 -21 -27 -5 -9 9 -11 7 -9 -7 2 -12 10 -18 21 -16 11 2 14
-1 10 -9 -4 -6 -9 -25 -10 -41 -2 -16 -8 -35 -14 -41 -14 -14 -15 -30 -1 -22
6 4 5 -6 -2 -22 -16 -38 -16 -37 -31 -25 -9 8 -17 8 -27 0 -12 -8 -12 -9 2 -4
11 3 22 -2 28 -14 9 -16 7 -20 -7 -20 -15 0 -16 -2 -3 -10 14 -9 13 -11 -9
-14 -5 0 -13 -5 -18 -10 -4 -5 -3 -6 4 -2 6 3 14 2 18 -4 3 -5 2 -10 -3 -10
-5 0 -12 -10 -15 -21 -4 -15 -11 -20 -22 -15 -9 3 -14 2 -10 -3 3 -5 2 -11 -2
-14 -5 -2 -2 -2 5 -1 6 2 12 0 12 -5 0 -5 -11 -12 -25 -15 -14 -4 -25 -12 -25
-18 0 -9 3 -9 12 0 19 19 33 14 15 -5 -10 -10 -35 -40 -57 -68 -22 -27 -42
-48 -44 -45 -2 3 -16 -10 -31 -29 l-29 -33 -18 22 c-10 12 -18 17 -18 12 0 -6
5 -14 10 -17 19 -11 10 -24 -37 -56 -27 -18 -42 -26 -35 -17 10 13 10 18 1 24
-8 4 -9 3 -5 -4 4 -7 2 -12 -3 -12 -6 0 -11 -7 -11 -17 0 -9 -3 -14 -6 -10 -3
3 -16 -3 -27 -14 -12 -11 -26 -18 -31 -16 -6 2 -17 -2 -24 -10 -10 -10 -18
-10 -35 -1 -20 10 -21 10 -8 -5 8 -10 9 -17 3 -17 -6 0 -15 7 -20 15 -7 13
-10 12 -21 -9 -8 -14 -19 -22 -27 -19 -8 3 -12 8 -9 12 2 4 -3 8 -11 8 -10 0
-11 -4 -4 -11 27 -27 -13 -43 -49 -19 -24 15 -25 15 -12 0 8 -10 10 -21 6 -25
-4 -4 -10 -1 -13 7 -3 10 -6 10 -12 2 -4 -7 -18 -13 -31 -15 -14 -1 -30 -6
-37 -10 -7 -4 -12 -2 -12 3 0 6 -8 11 -17 11 -15 0 -16 -2 -3 -10 8 -5 10 -10
4 -10 -6 0 -19 10 -28 23 -16 22 -16 22 -6 0 14 -30 15 -29 -29 -29 -26 0 -38
4 -34 10 3 6 3 8 -2 4 -4 -4 -17 -3 -28 3 -11 7 -17 7 -13 1 3 -5 -1 -15 -8
-21 -10 -8 -16 -9 -21 -1 -3 5 -1 10 4 10 6 0 11 5 11 10 0 17 -18 11 -24 -8
-4 -10 -13 -19 -21 -19 -13 0 -12 4 2 21 18 20 17 20 -2 6 -11 -8 -23 -19 -27
-25 -7 -9 -12 7 -9 28 0 4 -4 7 -9 7 -6 0 -10 -7 -8 -16 2 -10 -5 -18 -14 -19
-20 -4 -23 6 -8 21 7 7 -3 10 -31 9 -22 -1 -43 -6 -47 -12 -4 -6 -23 -9 -42
-7 -55 7 -85 12 -85 14 0 1 -13 3 -30 6 -32 4 -67 11 -75 14 -3 1 -9 2 -13 1
-4 -1 -10 6 -13 14 -4 8 -10 15 -16 15 -5 0 -6 -4 -3 -10 3 -5 1 -10 -4 -10
-6 0 -11 4 -11 10 0 5 -7 7 -15 4 -8 -4 -15 -1 -15 6 0 6 4 9 8 6 4 -2 9 4 9
15 2 18 0 18 -17 -3 -11 -13 -19 -17 -20 -10 0 7 -4 11 -8 8 -12 -7 -72 25
-72 39 0 16 -27 27 -35 14 -4 -5 -1 -8 6 -7 6 2 14 -4 16 -12 4 -12 3 -12 -5
-2 -5 8 -13 13 -18 13 -5 0 -18 7 -30 17 -11 9 -27 18 -35 20 -7 2 -16 7 -19
11 -3 5 -19 15 -37 24 -17 9 -40 28 -51 41 -11 14 -22 22 -26 19 -3 -3 -6 -1
-6 6 0 8 7 10 20 6 11 -3 20 -2 20 3 0 6 -13 9 -29 8 -22 -2 -33 4 -42 22 -11
19 -11 25 1 32 8 6 10 10 5 10 -6 0 -16 -5 -21 -10 -8 -8 -18 -1 -36 22 -41
56 -87 136 -81 142 4 3 0 6 -7 6 -7 0 -11 3 -7 6 3 4 -3 24 -14 45 -11 22 -17
39 -14 39 3 0 1 9 -5 19 -5 11 -11 38 -12 61 -1 22 -6 44 -11 47 -5 3 1 11 13
18 22 12 23 13 4 19 -16 5 -20 15 -21 56 0 27 3 48 6 45 4 -2 13 6 20 18 11
18 11 20 0 10 -19 -19 -27 -16 -25 10 0 12 10 28 21 35 16 10 16 12 3 8 -20
-6 -25 18 -7 30 6 3 8 15 6 26 -4 15 -1 18 16 13 18 -5 19 -4 6 4 -14 9 -15
17 -7 51 6 22 16 40 24 40 8 0 14 5 14 11 0 6 -7 8 -16 5 -14 -5 -15 -4 -4 9
7 8 15 13 19 11 3 -2 15 2 25 9 18 13 18 14 -2 12 -11 0 -18 -5 -15 -11 4 -5
1 -6 -7 -1 -10 6 -9 11 4 21 10 7 15 17 11 23 -3 6 -1 11 4 11 6 0 10 4 8 8
-3 11 55 102 65 102 4 0 5 6 2 14 -6 17 44 59 63 52 7 -3 15 -1 18 4 3 4 -6 7
-20 6 -13 -2 -22 1 -19 5 3 5 17 10 32 10 17 1 21 3 9 6 -9 2 -15 9 -11 14 3
5 10 6 16 3 8 -5 9 -1 5 10 -4 9 -3 14 2 11 5 -3 12 4 16 15 7 21 27 29 22 9
-1 -6 5 -14 13 -16 9 -3 11 -1 5 4 -5 4 -11 15 -13 25 -2 12 3 15 18 11 11 -3
17 -10 13 -16 -4 -6 -1 -7 7 -2 10 6 10 10 -3 20 -14 10 -11 16 25 51 23 21
48 38 56 36 8 -2 11 1 8 7 -4 5 3 12 14 16 11 4 18 10 15 15 -3 5 -1 11 5 15
5 3 10 1 10 -6 0 -7 3 -9 7 -6 3 4 12 2 19 -4 9 -7 12 -6 10 5 -1 9 -6 19 -11
23 -4 4 -5 2 0 -6 5 -10 4 -12 -4 -7 -16 10 -4 26 15 19 8 -3 14 -2 12 3 -2 5
0 10 5 11 7 3 23 15 52 41 9 8 15 9 15 3 0 -6 4 -11 10 -11 5 0 6 7 3 17 -5
12 -3 14 8 7 21 -13 39 -14 39 -2 0 6 -7 8 -15 4 -26 -9 -16 9 13 26 15 8 33
13 41 10 9 -3 11 0 6 9 -5 8 -5 11 0 7 4 -4 14 0 22 8 8 8 19 12 24 9 5 -4 9
-3 9 2 0 13 99 55 112 47 6 -4 8 -3 5 3 -4 6 5 15 18 21 17 8 23 16 18 28 -5
14 -2 16 13 11 15 -5 15 -4 -3 9 -19 13 -21 20 -12 36 8 16 8 23 -2 29 -8 5
-9 9 -4 9 6 1 -1 6 -15 12 -23 10 -37 13 -95 22 -11 2 -22 5 -25 6 -3 2 -12 4
-20 4 -8 1 -14 8 -12 15 2 8 -4 10 -16 7 -10 -3 -27 0 -38 8 -18 14 -18 15 6
25 14 5 19 10 12 10 -7 1 -23 -4 -35 -11 -19 -10 -20 -9 -9 4 16 20 7 42 -23
58 -13 7 -24 20 -24 29 0 9 -2 33 -5 54 -3 23 -1 35 5 32 5 -4 7 -17 5 -30 -4
-19 -1 -22 12 -18 9 4 11 8 5 10 -7 3 -10 10 -7 17 3 8 -1 20 -8 27 -7 8 -14
21 -16 28 -3 12 0 12 13 1 8 -7 18 -10 22 -6 3 3 1 6 -6 6 -7 0 -9 5 -6 10 3
6 -2 10 -12 10 -17 1 -17 1 0 14 17 13 24 32 8 22 -5 -4 -7 3 -4 15 4 16 8 17
14 7 7 -10 9 -9 9 5 0 9 -6 17 -12 18 -7 0 -2 4 10 10 13 5 28 7 33 4 5 -4 6
1 3 10 -5 12 -9 13 -20 4 -11 -9 -14 -9 -14 0 0 6 7 14 15 17 8 4 12 11 8 17
-4 6 -1 7 7 2 10 -6 12 -4 7 8 -4 11 -1 17 9 17 8 0 13 4 10 9 -3 5 0 14 8 20
11 9 17 8 29 -3 13 -14 16 -14 21 -1 3 8 2 14 -2 14 -21 -4 -22 3 -1 20 17 13
29 16 40 10 12 -6 21 -3 30 9 13 15 12 16 -3 4 -9 -8 -19 -9 -22 -4 -8 13 27
21 46 11 7 -4 20 -3 28 3 12 8 12 9 -2 4 -10 -3 -20 -1 -23 3 -2 5 8 11 23 14
15 3 37 7 50 10 12 3 22 2 22 -4 0 -5 5 -9 10 -9 6 0 9 3 9 8 -1 4 -1 9 0 12
2 9 149 6 148 -4z m177 -61 c-4 -8 -10 -12 -15 -9 -11 6 -2 24 11 24 5 0 7 -7
4 -15z m-3039 -99 c17 -17 7 -30 -12 -15 -13 12 -18 29 -7 29 3 0 12 -6 19
-14z m2415 -348 c0 -4 -4 -8 -10 -8 -5 0 -10 7 -10 16 0 8 -4 12 -10 9 -5 -3
-10 2 -10 11 0 16 1 16 20 -1 11 -10 20 -22 20 -27z m736 -30 c4 -7 3 -8 -4
-4 -7 4 -12 2 -12 -3 0 -6 -8 -11 -17 -11 -16 1 -16 2 1 15 24 18 23 18 32 3z
m-2766 -1134 c0 -8 -5 -12 -10 -9 -6 4 -8 11 -5 16 9 14 15 11 15 -7z m2870
-874 c0 -5 -5 -10 -11 -10 -5 0 -7 5 -4 10 3 6 8 10 11 10 2 0 4 -4 4 -10z
m-540 -72 c0 -12 -18 -19 -25 -8 -4 6 -11 7 -17 4 -6 -4 -8 -2 -4 4 7 12 46
12 46 0z m180 -8 c0 -5 -2 -10 -4 -10 -3 0 -8 5 -11 10 -3 6 -1 10 4 10 6 0
11 -4 11 -10z"/>
<path d="M966 5692 c-3 -6 -1 -14 5 -17 15 -10 25 3 12 16 -7 7 -13 7 -17 1z"/>
<path d="M906 5671 c-13 -14 -12 -19 5 -40 10 -13 19 -19 19 -13 0 6 -7 18
-16 26 -8 9 -14 16 -12 17 29 7 45 6 57 -4 12 -10 12 -9 1 9 -15 25 -35 26
-54 5z"/>
<path d="M1066 5643 c-6 -14 -5 -15 5 -6 7 7 10 15 7 18 -3 3 -9 -2 -12 -12z"/>
<path d="M1033 5635 c0 -8 4 -12 9 -9 5 3 6 10 3 15 -9 13 -12 11 -12 -6z"/>
<path d="M975 5620 c-3 -5 -1 -10 4 -10 6 0 11 5 11 10 0 6 -2 10 -4 10 -3 0
-8 -4 -11 -10z"/>
<path d="M1174 5579 c-4 -7 -3 -9 4 -5 5 3 13 0 15 -6 4 -9 6 -10 6 -1 1 17
-16 25 -25 12z"/>
<path d="M856 5572 c-7 -11 -2 -40 9 -49 4 -4 5 -2 1 5 -6 9 -1 11 19 8 15 -3
24 -2 20 2 -3 4 -11 8 -16 8 -5 1 -13 2 -19 3 -5 0 -10 6 -10 12 0 6 7 8 16 5
8 -3 12 -2 9 4 -7 12 -22 13 -29 2z"/>
<path d="M1173 5545 c0 -8 4 -12 9 -9 5 3 6 10 3 15 -9 13 -12 11 -12 -6z"/>
<path d="M846 5453 c-6 -14 -5 -15 5 -6 7 7 10 15 7 18 -3 3 -9 -2 -12 -12z"/>
<path d="M1234 5446 c1 -8 5 -18 8 -22 4 -3 5 1 4 10 -1 8 -5 18 -8 22 -4 3
-5 -1 -4 -10z"/>
<path d="M870 5376 c0 -2 8 -10 18 -17 15 -13 16 -12 3 4 -13 16 -21 21 -21
13z"/>
<path d="M1170 5300 c0 -5 5 -10 11 -10 5 0 7 5 4 10 -3 6 -8 10 -11 10 -2 0
-4 -4 -4 -10z"/>
<path d="M850 5221 c0 -6 4 -13 10 -16 6 -3 7 1 4 9 -7 18 -14 21 -14 7z"/>
<path d="M1170 5190 c-9 -6 -10 -10 -3 -10 6 0 15 5 18 10 8 12 4 12 -15 0z"/>
<path d="M860 5180 c18 -12 30 -13 30 -2 0 4 -10 9 -22 9 -18 2 -20 0 -8 -7z"/>
<path d="M1143 5155 c0 -8 4 -12 9 -9 4 3 8 9 8 15 0 5 -4 9 -8 9 -5 0 -9 -7
-9 -15z"/>
<path d="M864 5139 c-3 -6 2 -18 12 -27 17 -16 17 -16 5 0 -7 9 -10 22 -6 28
3 5 4 10 1 10 -3 0 -8 -5 -12 -11z"/>
<path d="M909 5103 c-13 -16 -12 -17 4 -4 9 7 17 15 17 17 0 8 -8 3 -21 -13z"/>
<path d="M1100 5085 c-11 -13 -11 -18 0 -28 10 -10 11 -9 5 2 -5 9 -1 19 10
28 11 7 14 13 8 13 -6 0 -16 -7 -23 -15z"/>
<path d="M875 5051 c-3 -5 0 -13 6 -17 7 -4 9 -3 5 4 -3 5 0 13 6 15 9 4 10 6
1 6 -6 1 -14 -3 -18 -8z"/>
<path d="M908 5003 c5 -21 7 -23 10 -9 2 10 0 22 -6 28 -6 6 -7 0 -4 -19z"/>
<path d="M1035 5010 c-3 -6 1 -7 9 -4 18 7 21 14 7 14 -6 0 -13 -4 -16 -10z"/>
<path d="M1060 5000 c-9 -6 -10 -10 -3 -10 6 0 15 5 18 10 8 12 4 12 -15 0z"/>
<path d="M979 4954 c-7 -8 -6 -14 1 -19 6 -4 9 -1 8 5 -2 7 5 14 15 15 27 5
33 14 8 12 -12 -1 -27 -7 -32 -13z"/>
<path d="M910 4950 c-8 -5 -12 -12 -9 -15 4 -3 12 1 19 10 14 17 11 19 -10 5z"/>
<path d="M936 4943 c-6 -14 -5 -15 5 -6 7 7 10 15 7 18 -3 3 -9 -2 -12 -12z"/>
<path d="M1007 4930 c-8 -11 -17 -17 -22 -12 -5 4 -5 1 0 -7 7 -12 10 -11 20
2 7 9 16 13 20 9 5 -4 5 -2 2 5 -4 6 -1 14 5 16 9 4 10 6 1 6 -6 1 -18 -8 -26
-19z"/>
<path d="M6010 5679 c0 -6 -4 -7 -10 -4 -5 3 -10 1 -10 -4 0 -14 6 -14 30 -1
15 8 21 6 29 -7 5 -10 13 -18 18 -18 4 0 7 -8 7 -17 -1 -10 2 -18 7 -18 10 0
7 29 -4 48 -5 6 -5 18 -1 25 6 9 5 9 -8 0 -8 -7 -18 -10 -22 -6 -11 11 -36 12
-36 2z"/>
<path d="M5930 5640 c0 -8 67 -7 74 1 3 3 -13 5 -34 5 -22 0 -40 -2 -40 -6z"/>
<path d="M6104 5595 c-18 -14 -18 -14 4 -8 12 3 22 9 22 14 0 12 -3 11 -26 -6z"/>
<path d="M5753 5535 c0 -8 6 -16 14 -19 11 -4 11 -1 3 14 -13 24 -17 25 -17 5z"/>
<path d="M5715 5520 c-3 -5 -5 -10 -3 -11 19 -4 51 -9 47 -6 -2 1 -11 8 -21
15 -11 9 -18 10 -23 2z"/>
<path d="M5726 5444 c-9 -13 -12 -24 -7 -24 5 0 12 9 16 19 4 12 12 18 21 14
7 -3 14 -3 14 0 0 3 -6 7 -14 10 -9 3 -21 -4 -30 -19z"/>
<path d="M5753 5377 c-3 -5 0 -14 6 -20 9 -9 10 -7 5 7 -5 13 -4 17 4 12 6 -3
13 -3 16 2 3 5 -2 9 -10 9 -8 0 -17 -4 -21 -10z"/>
<path d="M6130 5360 c0 -5 5 -10 11 -10 5 0 7 5 4 10 -3 6 -8 10 -11 10 -2 0
-4 -4 -4 -10z"/>
<path d="M5755 5331 c-3 -5 0 -13 6 -17 7 -4 9 -3 5 4 -3 5 0 13 6 15 9 4 10
6 1 6 -6 1 -14 -3 -18 -8z"/>
<path d="M6140 5330 c-9 -6 -10 -10 -3 -10 6 0 15 5 18 10 8 12 4 12 -15 0z"/>
<path d="M6140 5299 c0 -5 5 -7 10 -4 6 3 10 8 10 11 0 2 -4 4 -10 4 -5 0 -10
-5 -10 -11z"/>
<path d="M5855 5220 c-3 -5 -1 -10 4 -10 6 0 11 5 11 10 0 6 -2 10 -4 10 -3 0
-8 -4 -11 -10z"/>
<path d="M5855 5191 c-3 -5 -2 -12 3 -15 5 -3 9 1 9 9 0 17 -3 19 -12 6z"/>
<path d="M5840 5146 c0 -2 7 -9 15 -16 9 -7 15 -8 15 -2 0 5 -7 12 -15 16 -8
3 -15 4 -15 2z"/>
<path d="M5877 5111 c-4 -17 -3 -21 5 -13 5 5 8 16 6 23 -3 8 -7 3 -11 -10z"/>
<path d="M5914 5081 c4 -5 1 -12 -4 -14 -6 -3 -5 -4 2 -3 15 3 23 26 8 26 -6
0 -9 -4 -6 -9z"/>
<path d="M6096 5078 c3 -5 10 -6 15 -3 13 9 11 12 -6 12 -8 0 -12 -4 -9 -9z"/>
<path d="M5959 5048 c-5 -18 -6 -38 -1 -34 7 8 12 36 6 36 -2 0 -4 -1 -5 -2z"/>
<path d="M5993 4975 c0 -8 4 -12 9 -9 5 3 6 10 3 15 -9 13 -12 11 -12 -6z"/>
<path d="M6027 4879 c7 -7 15 -10 18 -7 3 3 -2 9 -12 12 -14 6 -15 5 -6 -5z"/>
<path d="M2510 4540 c0 -5 5 -10 11 -10 5 0 7 5 4 10 -3 6 -8 10 -11 10 -2 0
-4 -4 -4 -10z"/>
<path d="M2345 4529 c-3 -5 1 -6 9 -3 9 3 16 -2 18 -13 3 -16 4 -16 9 2 5 15
1 21 -12 22 -10 1 -21 -2 -24 -8z"/>
<path d="M2473 4525 c0 -8 4 -12 9 -9 5 3 6 10 3 15 -9 13 -12 11 -12 -6z"/>
<path d="M2310 4500 c0 -6 -4 -9 -8 -6 -5 3 -21 -8 -36 -23 -29 -30 -21 -51
11 -31 15 9 14 10 -7 4 l-25 -6 24 25 c13 15 27 25 30 22 4 -2 13 0 20 4 9 6
10 11 2 15 -6 4 -11 2 -11 -4z"/>
<path d="M2662 4496 c10 -7 14 -17 10 -21 -4 -5 -1 -5 6 -1 10 6 10 11 1 22
-6 8 -17 14 -23 14 -6 0 -3 -7 6 -14z"/>
<path d="M2635 4480 c3 -5 8 -10 11 -10 2 0 4 5 4 10 0 6 -5 10 -11 10 -5 0
-7 -4 -4 -10z"/>
<path d="M2758 4383 c7 -3 16 -2 19 1 4 3 -2 6 -13 5 -11 0 -14 -3 -6 -6z"/>
<path d="M2230 4370 c-9 -6 -10 -10 -3 -10 6 0 15 5 18 10 8 12 4 12 -15 0z"/>
<path d="M2770 4360 c0 -5 5 -10 10 -10 6 0 10 5 10 10 0 6 -4 10 -10 10 -5 0
-10 -4 -10 -10z"/>
<path d="M2800 4363 c0 -5 11 -24 25 -43 14 -19 25 -31 25 -27 0 3 -11 23 -25
43 -14 20 -25 33 -25 27z"/>
<path d="M2173 4324 c0 -10 4 -11 14 -3 21 18 15 -3 -9 -28 -12 -13 -17 -23
-12 -23 13 1 47 50 40 58 -12 12 -33 10 -33 -4z"/>
<path d="M2233 4325 c0 -8 4 -12 9 -9 5 3 6 10 3 15 -9 13 -12 11 -12 -6z"/>
<path d="M2813 4295 c0 -8 4 -12 9 -9 5 3 6 10 3 15 -9 13 -12 11 -12 -6z"/>
<path d="M2867 4219 c7 -7 15 -10 18 -7 3 3 -2 9 -12 12 -14 6 -15 5 -6 -5z"/>
<path d="M2901 4213 c-1 -6 -4 -20 -7 -30 -5 -17 -5 -17 6 0 6 10 9 23 6 30
-3 9 -5 9 -5 0z"/>
<path d="M2190 4206 c0 -2 7 -7 16 -10 8 -3 12 -2 9 4 -6 10 -25 14 -25 6z"/>
<path d="M2183 4187 c19 -15 24 -32 6 -21 -6 3 1 -12 16 -35 27 -40 45 -52 45
-30 0 5 -4 8 -9 5 -11 -7 -26 23 -30 61 0 7 -11 17 -23 23 -21 10 -21 10 -5
-3z"/>
<path d="M2896 4133 c-6 -14 -5 -15 5 -6 7 7 10 15 7 18 -3 3 -9 -2 -12 -12z"/>
<path d="M2930 4139 c0 -5 5 -7 10 -4 6 3 10 8 10 11 0 2 -4 4 -10 4 -5 0 -10
-5 -10 -11z"/>
<path d="M2255 4081 c-3 -5 0 -13 6 -17 7 -4 9 -3 5 4 -3 5 0 13 6 15 9 4 10
6 1 6 -6 1 -14 -3 -18 -8z"/>
<path d="M2290 4080 c0 -5 5 -10 11 -10 5 0 7 5 4 10 -3 6 -8 10 -11 10 -2 0
-4 -4 -4 -10z"/>
<path d="M2975 4079 c-5 -7 -1 -16 9 -21 9 -5 16 -14 16 -20 0 -6 -7 -5 -17 3
-16 13 -17 12 -4 -3 17 -23 -3 -55 -24 -38 -10 8 -15 8 -21 -1 -4 -7 -3 -9 4
-5 5 3 12 2 14 -4 5 -17 46 -20 59 -4 8 10 9 18 0 27 -6 8 -8 17 -4 20 3 4 0
14 -8 23 -8 10 -12 19 -11 21 2 3 1 7 -1 9 -3 3 -8 0 -12 -7z m33 -81 c-2 -6
-12 -12 -22 -14 -14 -2 -15 0 -5 12 14 17 32 19 27 2z"/>
<path d="M2286 4048 c3 -5 10 -6 15 -3 13 9 11 12 -6 12 -8 0 -12 -4 -9 -9z"/>
<path d="M2317 4043 c-12 -12 -7 -20 21 -32 l27 -11 -22 19 c-12 10 -19 21
-16 25 4 3 4 6 1 6 -2 0 -8 -3 -11 -7z"/>
<path d="M2346 4039 c2 -4 13 -7 24 -6 23 2 17 10 -10 12 -10 1 -17 -2 -14 -6z"/>
<path d="M2410 4010 c-9 -6 -10 -10 -3 -10 6 0 15 5 18 10 8 12 4 12 -15 0z"/>
<path d="M2436 3995 c-3 -8 -1 -15 4 -15 6 0 10 7 10 15 0 8 -2 15 -4 15 -2 0
-6 -7 -10 -15z"/>
<path d="M2870 4001 c0 -6 4 -12 8 -15 5 -3 9 1 9 9 0 8 -4 15 -9 15 -4 0 -8
-4 -8 -9z"/>
<path d="M2575 3980 c-3 -5 -3 -10 2 -10 4 0 1 -5 -7 -11 -12 -8 -12 -10 -1
-7 8 2 15 12 17 21 3 19 -2 22 -11 7z"/>
<path d="M2607 3979 c7 -7 15 -10 18 -7 3 3 -2 9 -12 12 -14 6 -15 5 -6 -5z"/>
<path d="M2473 3973 c9 -2 15 -8 12 -13 -7 -11 15 -7 40 8 11 6 15 12 8 12 -6
0 -15 -5 -19 -11 -4 -8 -9 -8 -17 0 -6 6 -18 10 -26 10 -12 -1 -12 -2 2 -6z"/>
<path d="M2710 3965 c0 -5 5 -17 10 -25 5 -8 10 -10 10 -5 0 6 -5 17 -10 25
-5 8 -10 11 -10 5z"/>
<path d="M2760 3949 c0 -5 -6 -7 -12 -3 -7 4 -9 3 -5 -1 13 -15 36 -14 30 1
-6 17 -13 18 -13 3z"/>
<path d="M2630 3940 c0 -5 5 -10 11 -10 5 0 7 5 4 10 -3 6 -8 10 -11 10 -2 0
-4 -4 -4 -10z"/>
<path d="M4442 4545 c-17 -37 -14 -45 4 -12 8 16 20 25 26 21 7 -4 8 -3 4 4
-11 18 -22 14 -34 -13z"/>
<path d="M4494 4560 c2 -16 20 -14 24 2 3 10 2 10 -6 -1 -7 -9 -11 -10 -15 -2
-4 7 -5 8 -3 1z"/>
<path d="M4533 4547 c-1 -11 -1 -18 0 -16 2 2 8 11 15 20 9 12 9 16 -1 16 -7
0 -14 -9 -14 -20z"/>
<path d="M4417 4553 c-4 -3 -7 -11 -7 -17 0 -6 5 -5 12 2 6 6 9 14 7 17 -3 3
-9 2 -12 -2z"/>
<path d="M4573 4543 c0 -7 4 -13 8 -13 4 0 9 6 12 13 3 8 0 14 -7 14 -7 0 -13
-6 -13 -14z"/>
<path d="M4486 4518 c3 -5 10 -6 15 -3 13 9 11 12 -6 12 -8 0 -12 -4 -9 -9z"/>
<path d="M4284 4469 c-3 -6 -2 -15 3 -20 5 -5 9 -1 9 11 0 23 -2 24 -12 9z"/>
<path d="M4318 4463 c7 -3 16 -2 19 1 4 3 -2 6 -13 5 -11 0 -14 -3 -6 -6z"/>
<path d="M4666 4461 c-3 -4 6 -7 19 -7 14 0 22 2 19 5 -8 8 -34 10 -38 2z"/>
<path d="M4245 4431 c-3 -5 -2 -12 3 -15 5 -3 9 1 9 9 0 17 -3 19 -12 6z"/>
<path d="M4734 4409 c0 -10 4 -19 8 -19 4 0 8 6 8 14 0 8 -4 17 -8 20 -4 2 -8
-4 -8 -15z"/>
<path d="M4275 4400 c3 -5 8 -10 11 -10 2 0 4 5 4 10 0 6 -5 10 -11 10 -5 0
-7 -4 -4 -10z"/>
<path d="M4790 4373 c5 -2 8 -9 5 -13 -3 -5 -1 -11 4 -14 5 -4 8 2 7 11 -2 9
-8 18 -15 19 -6 1 -7 0 -1 -3z"/>
<path d="M4810 4330 c-9 -6 -10 -10 -3 -10 6 0 15 5 18 10 8 12 4 12 -15 0z"/>
<path d="M4180 4319 c0 -5 5 -7 10 -4 6 3 10 8 10 11 0 2 -4 4 -10 4 -5 0 -10
-5 -10 -11z"/>
<path d="M4156 4293 c-6 -14 -5 -15 5 -6 7 7 10 15 7 18 -3 3 -9 -2 -12 -12z"/>
<path d="M4813 4295 c0 -8 4 -12 9 -9 5 3 6 10 3 15 -9 13 -12 11 -12 -6z"/>
<path d="M4110 4240 c0 -5 5 -10 11 -10 5 0 7 5 4 10 -3 6 -8 10 -11 10 -2 0
-4 -4 -4 -10z"/>
<path d="M4150 4241 c0 -6 4 -13 10 -16 6 -3 7 1 4 9 -7 18 -14 21 -14 7z"/>
<path d="M4796 4222 c-3 -4 4 -9 15 -9 23 -2 25 3 4 10 -8 4 -16 3 -19 -1z"/>
<path d="M4076 4191 c-3 -5 1 -11 9 -14 9 -4 12 -1 8 9 -6 16 -10 17 -17 5z"/>
<path d="M4043 4132 c-19 -12 -19 -34 0 -37 14 -3 16 0 7 10 -8 10 -7 16 7 24
10 6 14 10 8 11 -5 0 -15 -4 -22 -8z"/>
<path d="M4715 4129 c-4 -6 -5 -12 -2 -15 2 -3 7 2 10 11 7 17 1 20 -8 4z"/>
<path d="M4744 4122 c4 -3 14 -7 22 -8 9 -1 13 0 10 4 -4 3 -14 7 -22 8 -9 1
-13 0 -10 -4z"/>
<path d="M4075 4100 c3 -5 8 -10 11 -10 2 0 4 5 4 10 0 6 -5 10 -11 10 -5 0
-7 -4 -4 -10z"/>
<path d="M4720 4095 c-9 -10 -9 -15 -1 -15 6 0 11 5 11 11 0 5 5 7 12 3 7 -4
8 -3 4 4 -9 15 -11 15 -26 -3z"/>
<path d="M4729 4063 c-13 -16 -12 -17 4 -4 9 7 17 15 17 17 0 8 -8 3 -21 -13z"/>
<path d="M4677 4055 c-4 -8 -3 -16 1 -19 4 -3 9 4 9 15 2 23 -3 25 -10 4z"/>
<path d="M4046 4042 c-3 -5 1 -9 9 -9 8 0 12 4 9 9 -3 4 -7 8 -9 8 -2 0 -6 -4
-9 -8z"/>
<path d="M4646 4014 c-5 -14 -4 -15 9 -4 17 14 19 20 6 20 -5 0 -12 -7 -15
-16z"/>
<path d="M4575 4008 c9 -23 31 -29 45 -12 9 10 9 14 1 14 -6 0 -11 -5 -11 -12
0 -6 -9 -3 -20 7 -17 16 -20 16 -15 3z"/>
<path d="M4307 3999 c7 -7 15 -10 18 -7 3 3 -2 9 -12 12 -14 6 -15 5 -6 -5z"/>
<path d="M4227 3979 c7 -7 15 -10 18 -7 3 3 -2 9 -12 12 -14 6 -15 5 -6 -5z"/>
<path d="M4516 3978 c3 -5 10 -6 15 -3 13 9 11 12 -6 12 -8 0 -12 -4 -9 -9z"/>
<path d="M4550 3980 c0 -5 5 -10 10 -10 6 0 10 5 10 10 0 6 -4 10 -10 10 -5 0
-10 -4 -10 -10z"/>
<path d="M4496 3967 c3 -10 9 -15 12 -12 3 3 0 11 -7 18 -10 9 -11 8 -5 -6z"/>
<path d="M4080 3959 c0 -5 5 -7 10 -4 6 3 10 8 10 11 0 2 -4 4 -10 4 -5 0 -10
-5 -10 -11z"/>
<path d="M4198 3961 c8 -4 14 -12 15 -17 1 -5 8 -9 15 -11 10 -1 8 4 -4 18 -9
10 -22 19 -28 19 -6 0 -5 -4 2 -9z"/>
<path d="M4290 3956 c7 -7 13 -7 20 0 6 6 3 10 -10 10 -13 0 -16 -4 -10 -10z"/>
<path d="M4436 3955 c4 -8 8 -15 10 -15 2 0 4 7 4 15 0 8 -4 15 -10 15 -5 0
-7 -7 -4 -15z"/>
<path d="M4255 3940 c-3 -5 -1 -10 4 -10 6 0 11 5 11 10 0 6 -2 10 -4 10 -3 0
-8 -4 -11 -10z"/>
<path d="M4320 3940 c-9 -6 -10 -10 -3 -10 6 0 15 5 18 10 8 12 4 12 -15 0z"/>
<path d="M4360 3940 c-12 -7 -10 -9 7 -7 12 0 19 5 17 9 -6 10 -6 10 -24 -2z"/>
<path d="M800 4162 c0 -7 5 -12 11 -12 5 0 8 -4 5 -8 -2 -4 0 -14 5 -22 7 -11
8 -10 6 8 -4 25 -27 55 -27 34z"/>
<path d="M3450 3546 c0 -3 14 -12 30 -21 17 -9 30 -13 30 -11 0 3 -13 12 -30
21 -16 9 -30 13 -30 11z"/>
<path d="M3510 3539 c0 -5 5 -7 12 -3 8 5 9 1 5 -12 -7 -18 -6 -18 6 -2 9 12
17 14 25 8 9 -7 9 -7 2 2 -13 15 -50 21 -50 7z"/>
<path d="M3374 3529 c-4 -7 -3 -9 4 -5 5 3 13 0 15 -6 4 -9 6 -10 6 -1 1 17
-16 25 -25 12z"/>
<path d="M3435 3520 c-3 -5 -1 -10 4 -10 6 0 11 5 11 10 0 6 -2 10 -4 10 -3 0
-8 -4 -11 -10z"/>
<path d="M3635 3520 c-3 -5 -1 -10 4 -10 6 0 11 5 11 10 0 6 -2 10 -4 10 -3 0
-8 -4 -11 -10z"/>
<path d="M3355 3500 c-3 -5 -1 -10 4 -10 6 0 11 5 11 10 0 6 -2 10 -4 10 -3 0
-8 -4 -11 -10z"/>
<path d="M3596 3498 c3 -5 10 -6 15 -3 13 9 11 12 -6 12 -8 0 -12 -4 -9 -9z"/>
<path d="M3655 3501 c-3 -5 -2 -12 3 -15 5 -3 9 1 9 9 0 17 -3 19 -12 6z"/>
<path d="M3234 3479 c-4 -7 -3 -9 4 -5 5 3 13 0 15 -6 4 -9 6 -10 6 -1 1 17
-16 25 -25 12z"/>
<path d="M3297 3475 c-4 -8 -1 -17 6 -21 7 -4 9 -4 5 1 -4 4 -3 14 3 22 7 8 8
13 1 13 -5 0 -12 -7 -15 -15z"/>
<path d="M3770 3461 c0 -6 5 -11 10 -11 6 0 10 -8 10 -17 0 -15 2 -16 10 -3 8
12 10 12 15 -2 4 -9 14 -19 22 -22 13 -6 14 -4 3 9 -21 26 -70 57 -70 46z"/>
<path d="M3176 3441 c-4 -5 -2 -12 3 -15 5 -4 12 -2 15 3 4 5 2 12 -3 15 -5 4
-12 2 -15 -3z"/>
<path d="M3726 3438 c3 -5 10 -6 15 -3 13 9 11 12 -6 12 -8 0 -12 -4 -9 -9z"/>
<path d="M3190 3399 c0 -5 5 -7 10 -4 6 3 10 8 10 11 0 2 -4 4 -10 4 -5 0 -10
-5 -10 -11z"/>
<path d="M3815 3380 c-3 -6 1 -7 9 -4 18 7 21 14 7 14 -6 0 -13 -4 -16 -10z"/>
<path d="M3850 3380 c0 -5 5 -10 11 -10 5 0 8 -4 5 -8 -3 -5 1 -9 9 -9 13 0
12 4 -2 19 -18 21 -23 22 -23 8z"/>
<path d="M3150 3369 c0 -5 5 -7 10 -4 6 3 10 8 10 11 0 2 -4 4 -10 4 -5 0 -10
-5 -10 -11z"/>
<path d="M3126 3315 c4 -8 8 -15 10 -15 2 0 4 7 4 15 0 8 -4 15 -10 15 -5 0
-7 -7 -4 -15z"/>
<path d="M3854 3298 c-4 -6 -3 -8 4 -4 6 3 17 -2 24 -12 7 -10 19 -22 27 -27
9 -5 7 2 -5 18 -23 31 -41 40 -50 25z"/>
<path d="M3880 3195 c-11 -13 -10 -14 4 -9 9 3 16 10 16 15 0 13 -6 11 -20 -6z"/>
<path d="M3110 3129 c0 -5 -4 -8 -8 -5 -5 3 -9 -1 -9 -9 0 -10 4 -12 12 -5 7
5 14 8 17 5 2 -3 5 2 5 10 0 8 -4 15 -9 15 -4 0 -8 -5 -8 -11z"/>
<path d="M3870 3119 c0 -3 9 -9 19 -12 13 -3 18 0 15 7 -5 13 -34 18 -34 5z"/>
<path d="M3830 3099 c0 -5 5 -7 10 -4 6 3 10 8 10 11 0 2 -4 4 -10 4 -5 0 -10
-5 -10 -11z"/>
<path d="M3860 3084 c0 -13 18 -39 24 -34 2 3 -2 14 -10 24 -8 11 -14 16 -14
10z"/>
<path d="M3144 3062 c4 -3 14 -7 22 -8 9 -1 13 0 10 4 -4 3 -14 7 -22 8 -9 1
-13 0 -10 -4z"/>
<path d="M3838 3043 c7 -3 16 -2 19 1 4 3 -2 6 -13 5 -11 0 -14 -3 -6 -6z"/>
<path d="M3196 3017 c3 -10 9 -15 12 -12 3 3 0 11 -7 18 -10 9 -11 8 -5 -6z"/>
<path d="M3753 2999 c-2 -23 3 -25 10 -4 4 8 3 16 -1 19 -4 3 -9 -4 -9 -15z"/>
<path d="M3170 2999 c0 -5 5 -7 10 -4 6 3 10 8 10 11 0 2 -4 4 -10 4 -5 0 -10
-5 -10 -11z"/>
<path d="M3223 3003 c4 -3 1 -13 -6 -22 -11 -14 -10 -14 5 -2 16 12 16 31 1
31 -4 0 -3 -3 0 -7z"/>
<path d="M3260 2980 c-8 -5 -12 -11 -10 -14 3 -2 14 2 24 10 22 15 10 19 -14
4z"/>
<path d="M3587 2919 c7 -7 15 -10 18 -7 3 3 -2 9 -12 12 -14 6 -15 5 -6 -5z"/>
<path d="M3595 2891 c-3 -5 -2 -12 3 -15 5 -3 9 1 9 9 0 17 -3 19 -12 6z"/>
<path d="M3626 2782 c-3 -4 4 -9 15 -9 23 -2 25 3 4 10 -8 4 -16 3 -19 -1z"/>
<path d="M3310 2760 c0 -5 5 -10 11 -10 5 0 7 5 4 10 -3 6 -8 10 -11 10 -2 0
-4 -4 -4 -10z"/>
<path d="M3290 2740 c0 -5 5 -10 11 -10 5 0 7 5 4 10 -3 6 -8 10 -11 10 -2 0
-4 -4 -4 -10z"/>
<path d="M3656 2742 c-3 -5 1 -9 9 -9 8 0 12 4 9 9 -3 4 -7 8 -9 8 -2 0 -6 -4
-9 -8z"/>
<path d="M3694 2732 c0 -10 6 -19 13 -19 8 0 9 6 2 19 -5 10 -11 18 -12 18 -2
0 -3 -8 -3 -18z"/>
<path d="M3246 2724 c-4 -9 -4 -19 -1 -22 3 -3 5 0 5 7 0 7 4 9 10 6 6 -3 7 1
4 9 -8 20 -10 20 -18 0z"/>
<path d="M3770 2702 c0 -4 12 -8 28 -9 23 -1 24 -1 7 7 -26 11 -35 12 -35 2z"/>
<path d="M3141 2681 c-11 -7 -9 -10 8 -16 13 -4 25 -4 28 -1 4 3 -1 6 -11 6
-9 0 -14 5 -11 10 8 12 4 12 -14 1z"/>
<path d="M3193 2675 c0 -8 4 -12 9 -9 4 3 8 9 8 15 0 5 -4 9 -8 9 -5 0 -9 -7
-9 -15z"/>
<path d="M3830 2683 c0 -13 17 -26 38 -29 6 -1 9 2 6 8 -3 5 -8 7 -12 4 -3 -3
-11 2 -18 12 -8 9 -14 12 -14 5z"/>
<path d="M3913 2635 c0 -8 4 -12 9 -9 5 3 6 10 3 15 -9 13 -12 11 -12 -6z"/>
<path d="M3100 2620 c-9 -6 -10 -10 -3 -10 6 0 15 5 18 10 8 12 4 12 -15 0z"/>
<path d="M3034 2608 c-4 -5 -3 -12 0 -15 3 -4 6 -1 6 6 0 7 5 9 10 6 6 -4 8
-10 5 -15 -3 -5 -2 -11 3 -14 4 -2 8 6 8 18 0 22 -22 31 -32 14z"/>
<path d="M3942 2604 c10 -10 20 -15 24 -12 3 4 -5 12 -18 18 -22 12 -22 12 -6
-6z"/>
<path d="M3980 2585 c-9 -10 -9 -15 -1 -15 6 0 11 5 11 11 0 6 18 -2 39 -18
26 -19 35 -31 28 -36 -8 -5 -7 -7 3 -6 8 1 23 -1 33 -6 15 -6 16 -10 5 -17 -9
-7 -8 -8 6 -4 14 5 17 2 12 -9 -3 -9 -2 -14 3 -10 5 3 12 -1 14 -7 4 -10 6
-10 6 0 1 16 -37 54 -102 99 -39 28 -46 31 -57 18z"/>
<path d="M3015 2560 c3 -5 8 -10 11 -10 2 0 4 5 4 10 0 6 -5 10 -11 10 -5 0
-7 -4 -4 -10z"/>
<path d="M2951 2524 c0 -11 3 -14 6 -6 3 7 2 16 -1 19 -3 4 -6 -2 -5 -13z"/>
<path d="M4055 2500 c-3 -6 1 -7 9 -4 18 7 21 14 7 14 -6 0 -13 -4 -16 -10z"/>
<path d="M2878 2493 c7 -3 16 -2 19 1 4 3 -2 6 -13 5 -11 0 -14 -3 -6 -6z"/>
<path d="M2870 2468 c0 -6 -3 -8 -7 -5 -8 9 -33 -12 -33 -27 0 -6 5 -3 11 7 6
9 14 15 18 12 5 -2 14 2 21 10 9 10 9 15 1 15 -6 0 -11 -5 -11 -12z"/>
<path d="M2916 2467 c3 -10 9 -15 12 -12 3 3 0 11 -7 18 -10 9 -11 8 -5 -6z"/>
<path d="M4130 2440 c0 -5 5 -10 11 -10 5 0 7 5 4 10 -3 6 -8 10 -11 10 -2 0
-4 -4 -4 -10z"/>
<path d="M4198 2403 c7 -3 16 -2 19 1 4 3 -2 6 -13 5 -11 0 -14 -3 -6 -6z"/>
<path d="M2756 2364 c-4 -9 -4 -19 -1 -22 3 -3 5 0 5 7 0 7 4 9 10 6 6 -3 7 1
4 9 -8 20 -10 20 -18 0z"/>
<path d="M4235 2369 c-4 -6 -5 -12 -2 -15 2 -3 7 2 10 11 7 17 1 20 -8 4z"/>
<path d="M4276 2332 c-3 -5 1 -9 9 -9 8 0 12 4 9 9 -3 4 -7 8 -9 8 -2 0 -6 -4
-9 -8z"/>
<path d="M4210 2320 c0 -5 5 -10 11 -10 5 0 7 5 4 10 -3 6 -8 10 -11 10 -2 0
-4 -4 -4 -10z"/>
<path d="M4301 2293 c-1 -17 16 -25 25 -12 4 7 3 9 -4 5 -5 -3 -13 0 -15 6 -4
9 -6 10 -6 1z"/>
<path d="M2660 2276 c-9 -11 -9 -19 0 -33 7 -11 10 -12 7 -3 -2 8 0 23 5 33
11 21 5 22 -12 3z"/>
<path d="M2691 2274 c0 -11 3 -14 6 -6 3 7 2 16 -1 19 -3 4 -6 -2 -5 -13z"/>
<path d="M4276 2258 c3 -5 10 -6 15 -3 13 9 11 12 -6 12 -8 0 -12 -4 -9 -9z"/>
<path d="M4352 2217 c10 -8 15 -17 11 -20 -3 -4 -1 -7 6 -7 7 0 9 -5 5 -12 -4
-7 -3 -8 4 -4 16 9 -1 41 -25 50 -17 6 -17 5 -1 -7z"/>
<path d="M2617 2189 c7 -7 15 -10 18 -7 3 3 -2 9 -12 12 -14 6 -15 5 -6 -5z"/>
<path d="M2650 2180 c0 -5 5 -10 11 -10 5 0 7 5 4 10 -3 6 -8 10 -11 10 -2 0
-4 -4 -4 -10z"/>
<path d="M2593 2162 c-8 -14 -8 -19 1 -19 7 0 13 9 13 19 1 10 1 18 0 18 -1 0
-7 -8 -14 -18z"/>
<path d="M4390 2161 c0 -5 7 -12 16 -15 14 -5 15 -4 4 9 -14 17 -20 19 -20 6z"/>
<path d="M2576 2053 c-6 -14 -5 -15 5 -6 7 7 10 15 7 18 -3 3 -9 -2 -12 -12z"/>
<path d="M4437 2013 c3 -7 6 -13 8 -13 2 0 5 6 8 13 3 8 -1 14 -8 14 -7 0 -11
-6 -8 -14z"/>
<path d="M2550 2010 c0 -5 5 -10 11 -10 5 0 7 5 4 10 -3 6 -8 10 -11 10 -2 0
-4 -4 -4 -10z"/>
<path d="M2525 1989 c-4 -6 -5 -12 -2 -15 2 -3 7 2 10 11 7 17 1 20 -8 4z"/>
<path d="M4450 1960 c0 -5 5 -10 11 -10 5 0 7 5 4 10 -3 6 -8 10 -11 10 -2 0
-4 -4 -4 -10z"/>
<path d="M4470 1920 c0 -6 7 -10 15 -10 8 0 15 2 15 4 0 2 -7 6 -15 10 -8 3
-15 1 -15 -4z"/>
<path d="M4450 1859 c0 -5 5 -7 10 -4 6 3 10 8 10 11 0 2 -4 4 -10 4 -5 0 -10
-5 -10 -11z"/>
<path d="M2485 1833 c-4 -11 0 -11 18 -2 31 16 32 18 8 16 -11 -1 -23 -7 -26
-14z"/>
<path d="M4480 1840 c-9 -6 -10 -10 -3 -10 6 0 15 5 18 10 8 12 4 12 -15 0z"/>
<path d="M4505 1829 c-4 -6 -4 -13 -1 -16 3 -3 0 -13 -7 -21 -8 -11 -8 -14 0
-9 6 4 13 1 16 -5 2 -7 4 4 3 24 -1 42 -2 43 -11 27z"/>
<path d="M2487 1756 c-4 -10 -1 -13 9 -9 15 6 19 23 5 23 -5 0 -11 -7 -14 -14z"/>
<path d="M2515 1710 c-4 -6 -11 -7 -17 -4 -7 4 -8 2 -4 -5 6 -9 11 -9 22 0 14
11 18 19 10 19 -3 0 -8 -5 -11 -10z"/>
<path d="M2495 1651 c-3 -5 -2 -12 3 -15 5 -3 9 1 9 9 0 17 -3 19 -12 6z"/>
<path d="M4495 1631 c-3 -5 -2 -12 3 -15 5 -3 9 1 9 9 0 17 -3 19 -12 6z"/>
<path d="M4455 1601 c-3 -5 -2 -12 3 -15 5 -3 9 1 9 9 0 17 -3 19 -12 6z"/>
<path d="M2505 1590 c-3 -6 1 -7 9 -4 18 7 21 14 7 14 -6 0 -13 -4 -16 -10z"/>
<path d="M2500 1561 c0 -6 4 -13 10 -16 6 -3 7 1 4 9 -7 18 -14 21 -14 7z"/>
<path d="M4461 1554 c0 -11 3 -14 6 -6 3 7 2 16 -1 19 -3 4 -6 -2 -5 -13z"/>
<path d="M2516 1522 c-3 -5 4 -21 15 -38 10 -16 19 -24 19 -19 -1 6 -7 19 -15
29 -8 10 -12 23 -9 27 3 5 3 9 0 9 -3 0 -7 -4 -10 -8z"/>
<path d="M4470 1519 c0 -5 5 -7 10 -4 6 3 10 8 10 11 0 2 -4 4 -10 4 -5 0 -10
-5 -10 -11z"/>
<path d="M4429 1463 c-13 -17 -13 -17 6 -3 11 8 22 16 24 17 2 2 0 3 -6 3 -6
0 -17 -8 -24 -17z"/>
<path d="M2570 1451 c0 -7 -4 -9 -10 -6 -5 3 -10 1 -10 -4 0 -6 4 -11 9 -11
13 0 25 20 17 27 -3 4 -6 1 -6 -6z"/>
<path d="M2590 1420 c0 -5 5 -10 11 -10 5 0 7 5 4 10 -3 6 -8 10 -11 10 -2 0
-4 -4 -4 -10z"/>
<path d="M4413 1412 c0 -12 5 -22 9 -22 11 0 10 12 -2 30 -7 12 -9 10 -7 -8z"/>
<path d="M2556 1413 c6 -4 14 -15 17 -23 5 -11 6 -9 4 4 -1 11 -9 21 -17 23
-10 3 -11 2 -4 -4z"/>
<path d="M4375 1380 c-3 -5 -1 -10 4 -10 6 0 11 5 11 10 0 6 -2 10 -4 10 -3 0
-8 -4 -11 -10z"/>
<path d="M2610 1360 c0 -5 5 -10 11 -10 5 0 7 5 4 10 -3 6 -8 10 -11 10 -2 0
-4 -4 -4 -10z"/>
<path d="M4350 1361 c0 -6 4 -13 10 -16 6 -3 7 1 4 9 -7 18 -14 21 -14 7z"/>
<path d="M2600 1336 c0 -9 32 -36 42 -36 6 0 1 9 -12 20 -23 20 -30 24 -30 16z"/>
<path d="M2652 1290 c-9 -15 -9 -21 1 -26 6 -4 9 -4 5 1 -4 4 -3 14 4 22 6 7
9 15 7 18 -3 2 -10 -4 -17 -15z"/>
<path d="M4347 1289 c4 -14 1 -18 -10 -13 -18 7 -32 -12 -16 -22 8 -5 9 -3 4
6 -6 10 -4 12 8 7 11 -4 20 1 27 12 7 14 6 20 -4 24 -10 4 -12 0 -9 -14z"/>
<path d="M2687 1233 c3 -7 6 -13 8 -13 2 0 5 6 8 13 3 8 -1 14 -8 14 -7 0 -11
-6 -8 -14z"/>
<path d="M2733 1235 c0 -8 4 -12 9 -9 5 3 6 10 3 15 -9 13 -12 11 -12 -6z"/>
<path d="M4285 1240 c-4 -6 1 -7 12 -3 15 5 16 3 6 -8 -7 -7 -13 -18 -13 -23
0 -6 7 -2 15 8 14 19 12 36 -5 36 -5 0 -12 -4 -15 -10z"/>
<path d="M4256 1194 c-6 -23 -9 -24 -24 -12 -15 11 -16 11 -5 -3 7 -9 12 -18
10 -20 -1 -3 6 4 16 14 9 11 17 25 17 33 0 22 -7 16 -14 -12z"/>
<path d="M2760 1180 c-13 -9 -12 -13 9 -30 26 -23 41 -25 41 -8 0 6 -3 8 -6 5
-4 -3 -16 -1 -27 5 -20 10 -20 11 -2 24 21 16 8 19 -15 4z"/>
<path d="M4195 1140 c6 -10 4 -12 -8 -7 -9 3 -16 3 -16 -1 3 -19 -2 -25 -11
-12 -6 9 -10 10 -10 3 0 -21 15 -22 39 -4 18 14 21 20 11 26 -9 6 -11 4 -5 -5z"/>
<path d="M2841 1118 c-1 -21 15 -32 25 -17 4 7 3 9 -4 5 -6 -3 -13 2 -15 11
-4 16 -5 16 -6 1z"/>
<path d="M2885 1100 c-3 -6 1 -7 9 -4 18 7 21 14 7 14 -6 0 -13 -4 -16 -10z"/>
<path d="M2895 1080 c-3 -5 -1 -10 4 -10 6 0 11 5 11 10 0 6 -2 10 -4 10 -3 0
-8 -4 -11 -10z"/>
<path d="M4081 1077 c-1 -10 -5 -16 -9 -13 -5 3 -9 -2 -9 -10 0 -13 2 -13 15
0 8 8 12 20 9 28 -4 9 -6 7 -6 -5z"/>
<path d="M4036 1067 c3 -10 9 -15 12 -12 3 3 0 11 -7 18 -10 9 -11 8 -5 -6z"/>
<path d="M4017 1041 c-4 -17 -3 -21 5 -13 5 5 8 16 6 23 -3 8 -7 3 -11 -10z"/>
<path d="M2980 1041 c0 -15 36 -27 55 -20 18 8 17 8 -5 6 -14 -1 -24 3 -23 9
1 6 -5 11 -13 11 -7 0 -14 -3 -14 -6z"/>
<path d="M3933 1031 c0 -11 5 -18 9 -15 4 3 5 11 1 19 -7 21 -12 19 -10 -4z"/>
<path d="M3094 1022 c3 -5 0 -12 -6 -15 -7 -2 -10 -7 -7 -11 3 -4 12 0 18 8 9
11 9 16 0 22 -7 4 -9 3 -5 -4z"/>
<path d="M3857 1013 c-10 -9 -9 -23 1 -23 5 0 9 7 9 15 0 17 -1 18 -10 8z"/>
<path d="M3141 994 c0 -11 3 -14 6 -6 3 7 2 16 -1 19 -3 4 -6 -2 -5 -13z"/>
<path d="M3785 1000 c-3 -6 1 -7 9 -4 18 7 21 14 7 14 -6 0 -13 -4 -16 -10z"/>
<path d="M3415 989 c-4 -6 -5 -12 -2 -15 2 -3 7 2 10 11 7 17 1 20 -8 4z"/>
<path d="M3156 973 c-6 -14 -5 -15 5 -6 7 7 10 15 7 18 -3 3 -9 -2 -12 -12z"/>
<path d="M3196 979 c2 -4 -1 -9 -8 -11 -7 -3 -4 -7 8 -10 14 -3 20 0 20 12 0
9 -6 17 -13 17 -7 0 -10 -4 -7 -8z"/>
<path d="M3805 979 c-4 -6 -5 -12 -2 -15 2 -3 7 2 10 11 7 17 1 20 -8 4z"/>
<path d="M3875 980 c-3 -5 -1 -10 4 -10 6 0 11 5 11 10 0 6 -2 10 -4 10 -3 0
-8 -4 -11 -10z"/>
<path d="M3241 963 c7 -10 14 -19 15 -21 1 -2 4 4 8 13 3 9 2 13 -4 10 -6 -3
-10 -1 -10 4 0 6 -5 11 -11 11 -8 0 -7 -6 2 -17z"/>
<path d="M3330 965 c-7 -9 -8 -15 -2 -15 5 0 12 7 16 15 3 8 4 15 2 15 -2 0
-9 -7 -16 -15z"/>
<path d="M3657 974 c-3 -3 -3 -13 0 -22 3 -13 1 -13 -11 2 -9 11 -16 15 -16 9
0 -13 18 -26 37 -29 9 -2 10 3 3 16 -5 9 -6 20 -3 24 3 3 4 6 1 6 -2 0 -7 -3
-11 -6z"/>
<path d="M3286 958 c3 -4 9 -8 15 -8 5 0 9 4 9 8 0 5 -7 9 -15 9 -8 0 -12 -4
-9 -9z"/>
<path d="M3770 959 c0 -5 5 -7 10 -4 6 3 10 8 10 11 0 2 -4 4 -10 4 -5 0 -10
-5 -10 -11z"/>
<path d="M3355 949 c-4 -6 -5 -12 -2 -15 2 -3 7 2 10 11 7 17 1 20 -8 4z"/>
<path d="M781 6394 c0 -11 3 -14 6 -6 3 7 2 16 -1 19 -3 4 -6 -2 -5 -13z"/>
<path d="M806 6397 c3 -10 9 -15 12 -12 3 3 0 11 -7 18 -10 9 -11 8 -5 -6z"/>
<path d="M997 6399 c7 -7 15 -10 18 -7 3 3 -2 9 -12 12 -14 6 -15 5 -6 -5z"/>
<path d="M5875 6390 c-3 -5 -1 -10 4 -10 6 0 11 5 11 10 0 6 -2 10 -4 10 -3 0
-8 -4 -11 -10z"/>
<path d="M6190 6390 c0 -5 5 -10 11 -10 5 0 7 5 4 10 -3 6 -8 10 -11 10 -2 0
-4 -4 -4 -10z"/>
<path d="M700 6380 c-8 -5 -10 -10 -5 -10 6 0 17 5 25 10 8 5 11 10 5 10 -5 0
-17 -5 -25 -10z"/>
<path d="M5830 6380 c-9 -6 -10 -10 -3 -10 6 0 15 5 18 10 8 12 4 12 -15 0z"/>
<path d="M1170 6374 c0 -1 6 -7 14 -13 10 -9 15 -8 19 2 3 8 -3 13 -14 13 -11
0 -19 -1 -19 -2z"/>
<path d="M6226 6368 c3 -4 11 -5 19 -1 21 7 19 12 -4 10 -11 0 -18 -5 -15 -9z"/>
<path d="M1219 6353 c-13 -16 -12 -17 4 -4 16 13 21 21 13 21 -2 0 -10 -8 -17
-17z"/>
<path d="M5706 6362 c-3 -5 1 -9 9 -9 8 0 12 4 9 9 -3 4 -7 8 -9 8 -2 0 -6 -4
-9 -8z"/>
<path d="M5751 6343 c-10 -26 -10 -27 4 -9 8 11 15 23 15 28 0 15 -7 8 -19
-19z"/>
<path d="M6280 6360 c18 -12 30 -13 30 -2 0 4 -10 9 -22 9 -18 2 -20 0 -8 -7z"/>
<path d="M1266 6333 c-6 -14 -5 -15 5 -6 7 7 10 15 7 18 -3 3 -9 -2 -12 -12z"/>
<path d="M1291 6324 c0 -11 3 -14 6 -6 3 7 2 16 -1 19 -3 4 -6 -2 -5 -13z"/>
<path d="M6393 6312 c-1 -22 0 -24 9 -8 6 10 6 22 2 26 -5 5 -10 -3 -11 -18z"/>
<path d="M1316 6318 c3 -5 10 -6 15 -3 13 9 11 12 -6 12 -8 0 -12 -4 -9 -9z"/>
<path d="M1370 6321 c0 -6 4 -13 10 -16 6 -3 7 1 4 9 -7 18 -14 21 -14 7z"/>
<path d="M618 6299 c-21 -11 -38 -22 -38 -24 0 -3 18 4 40 15 22 11 40 23 40
25 0 7 0 7 -42 -16z"/>
<path d="M1341 6307 c2 -1 13 -9 24 -17 19 -14 19 -14 6 3 -7 9 -18 17 -24 17
-6 0 -8 -1 -6 -3z"/>
<path d="M5555 6300 c-3 -5 -1 -10 4 -10 6 0 11 5 11 10 0 6 -2 10 -4 10 -3 0
-8 -4 -11 -10z"/>
<path d="M5593 6295 c0 -8 4 -12 9 -9 5 3 6 10 3 15 -9 13 -12 11 -12 -6z"/>
<path d="M5634 6302 c4 -3 14 -7 22 -8 9 -1 13 0 10 4 -4 3 -14 7 -22 8 -9 1
-13 0 -10 -4z"/>
<path d="M1390 6279 c0 -4 6 -9 13 -12 8 -3 14 0 14 7 0 7 -6 13 -14 13 -7 0
-13 -4 -13 -8z"/>
<path d="M1430 6279 c0 -5 5 -7 10 -4 6 3 10 8 10 11 0 2 -4 4 -10 4 -5 0 -10
-5 -10 -11z"/>
<path d="M6430 6285 c0 -5 5 -17 10 -25 5 -8 10 -10 10 -5 0 6 -5 17 -10 25
-5 8 -10 11 -10 5z"/>
<path d="M550 6259 c0 -5 5 -7 10 -4 6 3 10 8 10 11 0 2 -4 4 -10 4 -5 0 -10
-5 -10 -11z"/>
<path d="M1473 6250 c1 -21 10 -18 13 5 1 8 -2 15 -6 15 -5 0 -8 -9 -7 -20z"/>
<path d="M5513 6245 c0 -8 4 -15 9 -15 4 0 8 4 8 9 0 6 -4 12 -8 15 -5 3 -9
-1 -9 -9z"/>
<path d="M3350 6236 c0 -2 8 -10 18 -17 15 -13 16 -12 3 4 -13 16 -21 21 -21
13z"/>
<path d="M456 6213 c-6 -14 -5 -15 5 -6 7 7 10 15 7 18 -3 3 -9 -2 -12 -12z"/>
<path d="M3690 6219 c0 -5 5 -7 10 -4 6 3 10 8 10 11 0 2 -4 4 -10 4 -5 0 -10
-5 -10 -11z"/>
<path d="M6485 6220 c-3 -6 1 -7 9 -4 18 7 21 14 7 14 -6 0 -13 -4 -16 -10z"/>
<path d="M3073 6207 c0 -8 6 -14 14 -14 9 0 10 4 2 14 -6 7 -12 13 -14 13 -1
0 -2 -6 -2 -13z"/>
<path d="M3507 6200 c-8 -11 -17 -17 -22 -12 -5 4 -5 1 0 -7 7 -12 10 -11 20
2 7 9 14 15 17 12 2 -3 5 2 5 10 0 20 -3 19 -20 -5z"/>
<path d="M4015 6209 c-4 -6 -5 -12 -2 -15 2 -3 7 2 10 11 7 17 1 20 -8 4z"/>
<path d="M4075 6211 c-3 -5 -2 -12 3 -15 5 -3 9 1 9 9 0 17 -3 19 -12 6z"/>
<path d="M5430 6210 c8 -5 20 -10 25 -10 6 0 3 5 -5 10 -8 5 -19 10 -25 10 -5
0 -3 -5 5 -10z"/>
<path d="M2879 6193 c-13 -16 -12 -17 4 -4 16 13 21 21 13 21 -2 0 -10 -8 -17
-17z"/>
<path d="M3110 6201 c0 -6 4 -12 8 -15 5 -3 9 1 9 9 0 8 -4 15 -9 15 -4 0 -8
-4 -8 -9z"/>
<path d="M3175 6200 c-3 -5 -1 -10 4 -10 6 0 11 5 11 10 0 6 -2 10 -4 10 -3 0
-8 -4 -11 -10z"/>
<path d="M3236 6193 c-6 -14 -5 -15 5 -6 7 7 10 15 7 18 -3 3 -9 -2 -12 -12z"/>
<path d="M3290 6200 c0 -5 5 -10 11 -10 5 0 7 5 4 10 -3 6 -8 10 -11 10 -2 0
-4 -4 -4 -10z"/>
<path d="M3335 6200 c-3 -5 -1 -10 4 -10 6 0 11 5 11 10 0 6 -2 10 -4 10 -3 0
-8 -4 -11 -10z"/>
<path d="M3595 6201 c3 -2 -1 -11 -8 -19 -9 -11 -4 -11 16 2 32 22 32 22 7 22
-10 0 -17 -2 -15 -5z"/>
<path d="M3815 6200 c-3 -5 -1 -10 4 -10 6 0 11 5 11 10 0 6 -2 10 -4 10 -3 0
-8 -4 -11 -10z"/>
<path d="M3876 6202 c-2 -4 -1 -14 4 -22 7 -11 9 -9 7 8 -1 24 -3 26 -11 14z"/>
<path d="M6526 6199 c2 -4 13 -7 24 -6 23 2 17 10 -10 12 -10 1 -17 -2 -14 -6z"/>
<path d="M1610 6181 c0 -7 -5 -9 -12 -5 -7 5 -8 3 -3 -5 5 -9 10 -10 18 -2 6
6 8 14 4 18 -4 3 -7 1 -7 -6z"/>
<path d="M3670 6180 c0 -5 5 -10 11 -10 5 0 7 5 4 10 -3 6 -8 10 -11 10 -2 0
-4 -4 -4 -10z"/>
<path d="M3990 6180 c0 -5 5 -10 11 -10 5 0 7 5 4 10 -3 6 -8 10 -11 10 -2 0
-4 -4 -4 -10z"/>
<path d="M4136 6182 c-2 -4 2 -16 10 -27 8 -10 14 -14 14 -8 0 7 -5 15 -10 18
-6 4 -8 11 -5 16 4 5 4 9 1 9 -3 0 -7 -3 -10 -8z"/>
<path d="M5335 6180 c-3 -5 -1 -10 4 -10 6 0 11 5 11 10 0 6 -2 10 -4 10 -3 0
-8 -4 -11 -10z"/>
<path d="M5364 6179 c-3 -6 -2 -15 3 -20 5 -5 9 -1 9 11 0 23 -2 24 -12 9z"/>
<path d="M2695 6171 c-3 -5 -2 -12 3 -15 5 -3 9 1 9 9 0 17 -3 19 -12 6z"/>
<path d="M4184 6158 l-19 -23 23 19 c21 18 27 26 19 26 -2 0 -12 -10 -23 -22z"/>
<path d="M406 6158 c3 -4 9 -8 15 -8 5 0 9 4 9 8 0 5 -7 9 -15 9 -8 0 -12 -4
-9 -9z"/>
<path d="M1661 6154 c0 -11 3 -14 6 -6 3 7 2 16 -1 19 -3 4 -6 -2 -5 -13z"/>
<path d="M3958 6163 c7 -3 16 -2 19 1 4 3 -2 6 -13 5 -11 0 -14 -3 -6 -6z"/>
<path d="M4239 6153 c-12 -16 -12 -17 2 -6 9 7 20 9 24 5 5 -4 5 -1 1 6 -9 16
-11 15 -27 -5z"/>
<path d="M4310 6159 c0 -5 5 -7 10 -4 6 3 10 8 10 11 0 2 -4 4 -10 4 -5 0 -10
-5 -10 -11z"/>
<path d="M5293 6151 c0 -11 5 -18 9 -15 4 3 5 11 1 19 -7 21 -12 19 -10 -4z"/>
<path d="M377 6139 c7 -7 15 -10 18 -7 3 3 -2 9 -12 12 -14 6 -15 5 -6 -5z"/>
<path d="M2790 6146 c0 -2 9 -6 20 -9 11 -3 18 -1 14 4 -5 9 -34 13 -34 5z"/>
<path d="M4336 6142 c-3 -5 3 -16 14 -25 17 -14 19 -14 17 3 -1 11 -6 16 -16
12 -9 -3 -12 -1 -7 6 4 7 5 12 2 12 -3 0 -7 -4 -10 -8z"/>
<path d="M4245 6130 c-3 -6 1 -7 9 -4 18 7 21 14 7 14 -6 0 -13 -4 -16 -10z"/>
<path d="M1770 6119 c0 -5 5 -7 10 -4 6 3 10 8 10 11 0 2 -4 4 -10 4 -5 0 -10
-5 -10 -11z"/>
<path d="M2626 6118 c3 -4 9 -8 15 -8 5 0 9 4 9 8 0 5 -7 9 -15 9 -8 0 -12 -4
-9 -9z"/>
<path d="M4495 6120 c3 -5 8 -10 11 -10 2 0 4 5 4 10 0 6 -5 10 -11 10 -5 0
-7 -4 -4 -10z"/>
<path d="M390 6110 c-9 -6 -10 -10 -3 -10 6 0 15 5 18 10 8 12 4 12 -15 0z"/>
<path d="M5275 6110 c-16 -7 -17 -9 -3 -9 9 -1 20 4 23 9 7 11 7 11 -20 0z"/>
<path d="M2476 6097 c3 -10 9 -15 12 -12 3 3 0 11 -7 18 -10 9 -11 8 -5 -6z"/>
<path d="M4467 6099 c7 -9 10 -19 6 -23 -4 -4 1 -4 10 0 10 3 17 7 15 8 -2 1
-12 8 -23 16 -18 14 -19 13 -8 -1z"/>
<path d="M5197 6093 c-12 -11 -8 -23 7 -23 8 0 18 4 21 10 4 6 -1 7 -11 3 -12
-4 -15 -3 -10 5 8 13 3 16 -7 5z"/>
<path d="M1761 6081 c-10 -6 -9 -10 3 -14 8 -3 18 -2 21 3 8 13 -9 20 -24 11z"/>
<path d="M2510 6076 c7 -7 13 -7 20 0 6 6 3 10 -10 10 -13 0 -16 -4 -10 -10z"/>
<path d="M2393 6055 c0 -8 4 -12 9 -9 4 3 8 9 8 15 0 5 -4 9 -8 9 -5 0 -9 -7
-9 -15z"/>
<path d="M4614 6062 c4 -3 14 -7 22 -8 9 -1 13 0 10 4 -4 3 -14 7 -22 8 -9 1
-13 0 -10 -4z"/>
<path d="M6638 6063 c7 -3 16 -2 19 1 4 3 -2 6 -13 5 -11 0 -14 -3 -6 -6z"/>
<path d="M1855 6040 c-3 -5 -1 -10 4 -10 6 0 11 5 11 10 0 6 -2 10 -4 10 -3 0
-8 -4 -11 -10z"/>
<path d="M4686 6039 c2 -4 13 -7 24 -6 23 2 17 10 -10 12 -10 1 -17 -2 -14 -6z"/>
<path d="M5160 6031 c-7 -11 -18 -17 -23 -14 -6 4 -7 1 -2 -6 5 -9 13 -7 31
10 26 24 28 29 16 29 -4 0 -14 -9 -22 -19z"/>
<path d="M6650 6043 c0 -6 8 -17 18 -24 16 -13 16 -13 2 6 -8 11 -16 22 -17
24 -2 2 -3 0 -3 -6z"/>
<path d="M2236 6022 c-2 -4 -1 -14 4 -22 7 -11 9 -9 7 8 -1 24 -3 26 -11 14z"/>
<path d="M2295 6020 c3 -5 8 -10 11 -10 2 0 4 5 4 10 0 6 -5 10 -11 10 -5 0
-7 -4 -4 -10z"/>
<path d="M1909 6003 c-13 -16 -12 -17 4 -4 9 7 17 15 17 17 0 8 -8 3 -21 -13z"/>
<path d="M4773 6005 c-3 -9 -3 -18 -1 -21 3 -3 8 4 11 16 6 23 -1 27 -10 5z"/>
<path d="M2166 6002 c-3 -5 1 -9 9 -9 8 0 12 4 9 9 -3 4 -7 8 -9 8 -2 0 -6 -4
-9 -8z"/>
<path d="M305 5990 c-4 -6 -11 -7 -17 -4 -7 4 -8 2 -4 -5 6 -9 11 -9 22 0 14
11 18 19 10 19 -3 0 -8 -5 -11 -10z"/>
<path d="M2220 5991 c0 -7 -5 -9 -12 -5 -7 5 -8 3 -3 -5 5 -9 10 -10 18 -2 6
6 8 14 4 18 -4 3 -7 1 -7 -6z"/>
<path d="M4857 5970 c3 -11 9 -20 15 -20 5 0 4 9 -2 20 -6 11 -12 20 -14 20
-2 0 -2 -9 1 -20z"/>
<path d="M1962 5961 c7 -12 14 -17 16 -11 2 6 9 7 15 3 7 -3 8 -2 4 3 -5 5
-12 9 -15 9 -4 0 -13 4 -20 9 -11 7 -11 4 0 -13z"/>
<path d="M2010 5961 c0 -6 4 -13 10 -16 6 -3 7 1 4 9 -7 18 -14 21 -14 7z"/>
<path d="M2060 5956 c7 -7 13 -7 20 0 6 6 3 10 -10 10 -13 0 -16 -4 -10 -10z"/>
<path d="M4995 5960 c-2 -3 5 -7 16 -7 10 -1 19 2 19 6 0 9 -29 10 -35 1z"/>
<path d="M275 5950 c-3 -6 1 -7 9 -4 18 7 21 14 7 14 -6 0 -13 -4 -16 -10z"/>
<path d="M2086 5942 c-3 -5 1 -9 9 -9 8 0 12 4 9 9 -3 4 -7 8 -9 8 -2 0 -6 -4
-9 -8z"/>
<path d="M4943 5943 c-7 -3 -13 -9 -13 -15 0 -6 7 -4 17 3 15 12 16 12 10 -4
-4 -10 -3 -16 2 -12 5 3 12 1 15 -4 7 -10 37 -9 36 2 0 4 0 13 0 20 0 9 -2 9
-9 -1 -12 -19 -18 -19 -33 -1 -7 9 -19 15 -25 12z"/>
<path d="M6721 5941 c-8 -5 -9 -11 -3 -15 5 -3 12 1 16 9 6 17 6 18 -13 6z"/>
<path d="M1985 5929 c-4 -5 -12 -7 -18 -3 -7 3 -3 -2 8 -10 20 -17 36 -17 42
1 5 14 -25 25 -32 12z m20 -9 c3 -5 1 -10 -4 -10 -6 0 -11 5 -11 10 0 6 2 10
4 10 3 0 8 -4 11 -10z"/>
<path d="M2050 5929 c0 -5 -5 -7 -12 -3 -7 4 -8 3 -4 -5 6 -9 11 -9 22 0 17
14 18 19 4 19 -5 0 -10 -5 -10 -11z"/>
<path d="M239 5893 c-12 -16 -12 -17 2 -6 9 7 20 9 24 5 5 -4 5 -1 1 6 -9 16
-11 15 -27 -5z"/>
<path d="M6750 5876 c0 -8 4 -17 9 -20 5 -4 7 3 4 14 -6 23 -13 26 -13 6z"/>
<path d="M6750 5836 c0 -2 8 -10 18 -17 15 -13 16 -12 3 4 -13 16 -21 21 -21
13z"/>
<path d="M198 5766 c5 -18 7 -18 10 -3 2 10 8 14 15 11 7 -4 8 -3 4 1 -17 19
-35 13 -29 -9z"/>
<path d="M6796 5713 c-6 -14 -5 -15 5 -6 7 7 10 15 7 18 -3 3 -9 -2 -12 -12z"/>
<path d="M193 5695 c0 -8 4 -12 9 -9 5 3 6 10 3 15 -9 13 -12 11 -12 -6z"/>
<path d="M153 5675 c0 -8 4 -12 9 -9 4 3 8 9 8 15 0 5 -4 9 -8 9 -5 0 -9 -7
-9 -15z"/>
<path d="M6823 5679 c9 -6 14 -15 11 -21 -4 -7 -2 -8 5 -4 14 9 -3 36 -23 36
-6 0 -3 -5 7 -11z"/>
<path d="M6790 5666 c0 -2 7 -7 16 -10 8 -3 12 -2 9 4 -6 10 -25 14 -25 6z"/>
<path d="M155 5640 c-3 -5 -1 -10 4 -10 6 0 11 5 11 10 0 6 -2 10 -4 10 -3 0
-8 -4 -11 -10z"/>
<path d="M6808 5592 c4 -11 7 -12 10 -4 3 10 7 10 20 0 14 -10 15 -10 5 2 -18
20 -43 22 -35 2z"/>
<path d="M174 5575 c0 -13 3 -22 7 -19 8 4 6 30 -2 38 -3 3 -5 -5 -5 -19z"/>
<path d="M136 5547 c3 -10 9 -15 12 -12 3 3 0 11 -7 18 -10 9 -11 8 -5 -6z"/>
<path d="M167 5519 c7 -7 15 -10 18 -7 3 3 -2 9 -12 12 -14 6 -15 5 -6 -5z"/>
<path d="M6835 5520 c6 -10 4 -12 -11 -6 -15 6 -17 5 -6 -5 9 -9 15 -10 23 -2
8 8 7 13 -2 18 -8 6 -10 4 -4 -5z"/>
<path d="M6826 5477 c3 -10 9 -15 12 -12 3 3 0 11 -7 18 -10 9 -11 8 -5 -6z"/>
<path d="M158 5473 c7 -3 16 -2 19 1 4 3 -2 6 -13 5 -11 0 -14 -3 -6 -6z"/>
<path d="M6810 5406 c0 -2 7 -7 16 -10 8 -3 12 -2 9 4 -6 10 -25 14 -25 6z"/>
<path d="M165 5379 c-4 -6 -5 -12 -2 -15 2 -3 7 2 10 11 7 17 1 20 -8 4z"/>
<path d="M6821 5364 c0 -11 3 -14 6 -6 3 7 2 16 -1 19 -3 4 -6 -2 -5 -13z"/>
<path d="M159 5333 c-13 -16 -12 -17 4 -4 16 13 21 21 13 21 -2 0 -10 -8 -17
-17z"/>
<path d="M6830 5340 c-9 -6 -10 -10 -3 -10 6 0 15 5 18 10 8 12 4 12 -15 0z"/>
<path d="M6820 5286 c0 -2 8 -10 18 -17 15 -13 16 -12 3 4 -13 16 -21 21 -21
13z"/>
<path d="M173 5165 c0 -8 4 -12 9 -9 5 3 6 10 3 15 -9 13 -12 11 -12 -6z"/>
<path d="M190 5139 c0 -5 5 -7 10 -4 6 3 10 8 10 11 0 2 -4 4 -10 4 -5 0 -10
-5 -10 -11z"/>
<path d="M6816 5133 c-6 -14 -5 -15 5 -6 7 7 10 15 7 18 -3 3 -9 -2 -12 -12z"/>
<path d="M198 5098 c9 -9 9 -15 -1 -27 -11 -14 -10 -14 6 -2 13 10 15 17 6 27
-6 8 -14 14 -17 14 -3 0 -1 -5 6 -12z"/>
<path d="M6789 5086 c-9 -19 -9 -19 4 -4 8 10 16 15 19 12 4 -3 8 -1 12 4 3 5
-2 9 -10 9 -8 0 -20 -10 -25 -21z"/>
<path d="M6790 4999 c0 -5 5 -7 10 -4 6 3 10 8 10 11 0 2 -4 4 -10 4 -5 0 -10
-5 -10 -11z"/>
<path d="M230 4969 c0 -5 -5 -7 -12 -3 -7 4 -8 3 -4 -5 6 -9 11 -9 22 0 17 14
18 19 4 19 -5 0 -10 -5 -10 -11z"/>
<path d="M235 4940 c-3 -6 1 -7 9 -4 18 7 21 14 7 14 -6 0 -13 -4 -16 -10z"/>
<path d="M235 4890 c-3 -6 1 -7 9 -4 18 7 21 14 7 14 -6 0 -13 -4 -16 -10z"/>
<path d="M6720 4876 c0 -2 7 -7 16 -10 8 -3 12 -2 9 4 -6 10 -25 14 -25 6z"/>
<path d="M260 4866 c0 -2 7 -7 16 -10 8 -3 12 -2 9 4 -6 10 -25 14 -25 6z"/>
<path d="M270 4800 c0 -5 7 -7 15 -4 8 4 15 8 15 10 0 2 -7 4 -15 4 -8 0 -15
-4 -15 -10z"/>
<path d="M6730 4785 c0 -5 5 -17 10 -25 5 -8 10 -10 10 -5 0 6 -5 17 -10 25
-5 8 -10 11 -10 5z"/>
<path d="M250 4776 c0 -2 8 -10 18 -17 15 -13 16 -12 3 4 -13 16 -21 21 -21
13z"/>
<path d="M300 4740 c-12 -7 -10 -9 7 -7 12 0 19 5 17 9 -6 10 -6 10 -24 -2z"/>
<path d="M6670 4699 c0 -5 5 -7 10 -4 6 3 10 8 10 11 0 2 -4 4 -10 4 -5 0 -10
-5 -10 -11z"/>
<path d="M318 4693 c7 -3 16 -2 19 1 4 3 -2 6 -13 5 -11 0 -14 -3 -6 -6z"/>
<path d="M6670 4659 c0 -5 5 -7 10 -4 6 3 10 8 10 11 0 2 -4 4 -10 4 -5 0 -10
-5 -10 -11z"/>
<path d="M361 4631 c-8 -5 -9 -11 -3 -15 5 -3 12 1 16 9 6 17 6 18 -13 6z"/>
<path d="M6619 4613 c-13 -16 -12 -17 4 -4 9 7 17 15 17 17 0 8 -8 3 -21 -13z"/>
<path d="M6595 4572 c4 -8 -2 -23 -15 -37 -17 -18 -19 -25 -8 -31 7 -4 10 -3
5 1 -4 5 3 19 15 32 18 19 19 25 8 36 -10 10 -11 9 -5 -1z"/>
<path d="M6593 4495 c0 -8 4 -12 9 -9 5 3 6 10 3 15 -9 13 -12 11 -12 -6z"/>
<path d="M473 4415 c0 -8 6 -16 14 -19 11 -4 11 -1 3 14 -13 24 -17 25 -17 5z"/>
<path d="M6555 4409 c-4 -6 -5 -12 -2 -15 2 -3 7 2 10 11 7 17 1 20 -8 4z"/>
<path d="M6478 4383 c7 -3 16 -2 19 1 4 3 -2 6 -13 5 -11 0 -14 -3 -6 -6z"/>
<path d="M533 4362 c0 -12 5 -22 9 -22 11 0 10 12 -2 30 -7 12 -9 10 -7 -8z"/>
<path d="M6460 4365 c0 -2 6 -8 13 -14 10 -8 14 -7 14 2 0 8 -6 14 -14 14 -7
0 -13 -1 -13 -2z"/>
<path d="M6425 4329 c-4 -6 -5 -12 -2 -15 2 -3 7 2 10 11 7 17 1 20 -8 4z"/>
<path d="M551 4313 c7 -12 15 -20 18 -17 3 2 -3 12 -13 22 -17 16 -18 16 -5
-5z"/>
<path d="M6445 4320 c-3 -6 1 -7 9 -4 18 7 21 14 7 14 -6 0 -13 -4 -16 -10z"/>
<path d="M6387 4279 c7 -7 15 -10 18 -7 3 3 -2 9 -12 12 -14 6 -15 5 -6 -5z"/>
<path d="M655 4240 c-3 -5 -1 -10 4 -10 6 0 11 5 11 10 0 6 -2 10 -4 10 -3 0
-8 -4 -11 -10z"/>
<path d="M6335 4240 c3 -5 8 -10 11 -10 2 0 4 5 4 10 0 6 -5 10 -11 10 -5 0
-7 -4 -4 -10z"/>
<path d="M6316 4222 c-3 -4 4 -9 15 -9 23 -2 25 3 4 10 -8 4 -16 3 -19 -1z"/>
<path d="M696 4182 c-2 -4 4 -8 14 -8 10 0 16 4 14 8 -3 4 -9 8 -14 8 -5 0
-11 -4 -14 -8z"/>
<path d="M6240 4140 c-9 -6 -10 -10 -3 -10 6 0 15 5 18 10 8 12 4 12 -15 0z"/>
<path d="M770 4121 c0 -6 4 -13 10 -16 6 -3 7 1 4 9 -7 18 -14 21 -14 7z"/>
<path d="M6195 4100 c3 -5 8 -10 11 -10 2 0 4 5 4 10 0 6 -5 10 -11 10 -5 0
-7 -4 -4 -10z"/>
<path d="M6195 4060 c-3 -5 -1 -10 4 -10 6 0 11 5 11 10 0 6 -2 10 -4 10 -3 0
-8 -4 -11 -10z"/>
<path d="M6198 4003 c7 -3 16 -2 19 1 4 3 -2 6 -13 5 -11 0 -14 -3 -6 -6z"/>
<path d="M755 3969 c-4 -6 -5 -12 -2 -15 2 -3 7 2 10 11 7 17 1 20 -8 4z"/>
<path d="M759 3928 c-6 -13 -8 -20 -4 -16 4 4 14 0 22 -10 13 -15 13 -15 3 6
-6 12 -8 27 -5 32 3 6 4 10 1 10 -3 0 -11 -10 -17 -22z"/>
<path d="M6250 3901 c0 -6 4 -13 10 -16 6 -3 7 1 4 9 -7 18 -14 21 -14 7z"/>
<path d="M753 3885 c0 -8 4 -12 9 -9 5 3 6 10 3 15 -9 13 -12 11 -12 -6z"/>
<path d="M6220 3876 c0 -2 7 -7 16 -10 8 -3 12 -2 9 4 -6 10 -25 14 -25 6z"/>
<path d="M766 3854 c-4 -9 -13 -14 -22 -10 -8 3 -12 2 -9 -3 10 -16 41 -8 42
11 2 22 -3 23 -11 2z"/>
<path d="M6234 3834 c-18 -14 -18 -15 4 -4 12 6 22 13 22 15 0 8 -5 6 -26 -11z"/>
<path d="M6244 3814 c-18 -14 -18 -15 4 -4 12 6 22 13 22 15 0 8 -5 6 -26 -11z"/>
<path d="M6276 3802 c-3 -5 1 -9 9 -9 8 0 12 4 9 9 -3 4 -7 8 -9 8 -2 0 -6 -4
-9 -8z"/>
<path d="M6267 3710 c-3 -11 -3 -20 -1 -20 2 0 8 9 14 20 6 11 7 20 2 20 -6 0
-12 -9 -15 -20z"/>
<path d="M714 3690 c0 -9 6 -17 12 -17 7 0 10 7 6 15 -4 11 -1 13 9 7 8 -5 11
-4 6 0 -14 16 -33 13 -33 -5z"/>
<path d="M6261 3663 c7 -12 15 -20 18 -17 3 2 -3 12 -13 22 -17 16 -18 16 -5
-5z"/>
<path d="M6266 3593 c6 -4 10 -16 8 -25 -1 -10 1 -20 5 -23 4 -2 7 8 6 22 0
15 -7 28 -15 31 -10 2 -11 1 -4 -5z"/>
<path d="M700 3586 c0 -3 9 -10 20 -16 11 -6 20 -8 20 -6 0 3 -9 10 -20 16
-11 6 -20 8 -20 6z"/>
<path d="M710 3550 c0 -5 5 -10 11 -10 5 0 7 5 4 10 -3 6 -8 10 -11 10 -2 0
-4 -4 -4 -10z"/>
<path d="M707 3519 c7 -7 15 -10 18 -7 3 3 -2 9 -12 12 -14 6 -15 5 -6 -5z"/>
<path d="M6280 3520 c-9 -6 -10 -10 -3 -10 6 0 15 5 18 10 8 12 4 12 -15 0z"/>
<path d="M690 3500 c0 -5 5 -10 11 -10 5 0 7 5 4 10 -3 6 -8 10 -11 10 -2 0
-4 -4 -4 -10z"/>
<path d="M6296 3493 c-6 -14 -5 -15 5 -6 7 7 10 15 7 18 -3 3 -9 -2 -12 -12z"/>
<path d="M700 3461 c0 -6 4 -13 10 -16 6 -3 7 1 4 9 -7 18 -14 21 -14 7z"/>
<path d="M6316 3438 c3 -5 10 -6 15 -3 13 9 11 12 -6 12 -8 0 -12 -4 -9 -9z"/>
<path d="M6280 3436 c0 -2 7 -7 16 -10 8 -3 12 -2 9 4 -6 10 -25 14 -25 6z"/>
<path d="M6330 3360 c0 -5 5 -10 11 -10 5 0 7 5 4 10 -3 6 -8 10 -11 10 -2 0
-4 -4 -4 -10z"/>
<path d="M685 3339 c-4 -6 -5 -12 -2 -15 2 -3 7 2 10 11 7 17 1 20 -8 4z"/>
<path d="M6308 3273 c7 -3 16 -2 19 1 4 3 -2 6 -13 5 -11 0 -14 -3 -6 -6z"/>
<path d="M677 3261 c6 -7 9 -20 6 -27 -3 -8 -3 -14 0 -14 14 0 14 30 -1 41
-14 11 -15 11 -5 0z"/>
<path d="M6315 3241 c-3 -5 0 -13 6 -17 7 -4 9 -3 5 4 -3 5 0 13 6 15 9 4 10
6 1 6 -6 1 -14 -3 -18 -8z"/>
<path d="M655 3220 c3 -5 8 -10 11 -10 2 0 4 5 4 10 0 6 -5 10 -11 10 -5 0 -7
-4 -4 -10z"/>
<path d="M670 3179 c0 -5 5 -7 10 -4 6 3 10 8 10 11 0 2 -4 4 -10 4 -5 0 -10
-5 -10 -11z"/>
<path d="M6330 3171 c0 -6 4 -13 10 -16 6 -3 7 1 4 9 -7 18 -14 21 -14 7z"/>
<path d="M665 3120 c-3 -6 1 -7 9 -4 18 7 21 14 7 14 -6 0 -13 -4 -16 -10z"/>
<path d="M6330 3006 c0 -2 7 -7 16 -10 8 -3 12 -2 9 4 -6 10 -25 14 -25 6z"/>
<path d="M639 2868 c-6 -13 -8 -20 -4 -16 5 4 15 2 24 -4 13 -10 14 -10 4 2
-16 18 -17 34 -1 24 7 -4 8 -3 4 4 -10 17 -14 15 -27 -10z"/>
<path d="M6334 2816 c1 -8 5 -18 8 -22 4 -3 5 1 4 10 -1 8 -5 18 -8 22 -4 3
-5 -1 -4 -10z"/>
<path d="M6375 2820 c-3 -5 -1 -10 4 -10 6 0 11 5 11 10 0 6 -2 10 -4 10 -3 0
-8 -4 -11 -10z"/>
<path d="M635 2780 c-3 -5 -1 -10 4 -10 6 0 11 5 11 10 0 6 -2 10 -4 10 -3 0
-8 -4 -11 -10z"/>
<path d="M655 2760 c-3 -5 -1 -10 4 -10 6 0 11 5 11 10 0 6 -2 10 -4 10 -3 0
-8 -4 -11 -10z"/>
<path d="M6355 2739 c-4 -6 -5 -12 -2 -15 2 -3 7 2 10 11 7 17 1 20 -8 4z"/>
<path d="M635 2720 c3 -5 8 -10 11 -10 2 0 4 5 4 10 0 6 -5 10 -11 10 -5 0 -7
-4 -4 -10z"/>
<path d="M628 2677 c8 -9 11 -22 7 -29 -4 -7 0 -5 8 4 8 10 16 17 18 15 2 -1
3 0 1 3 -2 3 -7 5 -10 5 -4 0 -14 4 -22 10 -13 7 -13 6 -2 -8z"/>
<path d="M6343 2678 c-9 -16 -16 -54 -7 -46 3 3 7 14 9 25 1 10 8 17 15 15 6
-1 9 2 5 8 -8 13 -12 13 -22 -2z"/>
<path d="M6375 2609 c-4 -6 -5 -12 -2 -15 2 -3 7 2 10 11 7 17 1 20 -8 4z"/>
<path d="M623 2577 c-3 -6 -1 -7 5 -3 5 3 12 1 14 -6 3 -8 6 -7 10 3 7 17 -19
22 -29 6z"/>
<path d="M6345 2560 c9 -16 18 -30 21 -30 2 0 -2 14 -11 30 -9 17 -18 30 -21
30 -2 0 2 -13 11 -30z"/>
<path d="M6347 2519 c7 -7 15 -10 18 -7 3 3 -2 9 -12 12 -14 6 -15 5 -6 -5z"/>
<path d="M6345 2420 c-3 -6 1 -7 9 -4 18 7 21 14 7 14 -6 0 -13 -4 -16 -10z"/>
<path d="M6336 2378 c3 -5 10 -6 15 -3 13 9 11 12 -6 12 -8 0 -12 -4 -9 -9z"/>
<path d="M670 2319 c0 -5 5 -7 10 -4 6 3 10 8 10 11 0 2 -4 4 -10 4 -5 0 -10
-5 -10 -11z"/>
<path d="M6312 2311 c-11 -7 -11 -9 0 -14 9 -3 15 1 15 9 0 8 -1 14 -1 14 -1
0 -7 -4 -14 -9z"/>
<path d="M700 2245 c8 -11 15 -21 16 -23 1 -2 5 5 8 15 4 9 4 14 0 10 -4 -4
-14 -1 -23 6 -14 11 -15 10 -1 -8z"/>
<path d="M6280 2220 c-12 -7 -10 -9 7 -7 12 0 19 5 17 9 -6 10 -6 10 -24 -2z"/>
<path d="M730 2185 c0 -5 5 -17 10 -25 5 -8 10 -10 10 -5 0 6 -5 17 -10 25 -5
8 -10 11 -10 5z"/>
<path d="M6215 2171 c-3 -5 -2 -12 3 -15 5 -3 9 1 9 9 0 17 -3 19 -12 6z"/>
<path d="M786 2138 c3 -4 9 -8 15 -8 5 0 9 4 9 8 0 5 -7 9 -15 9 -8 0 -12 -4
-9 -9z"/>
<path d="M6197 2117 c4 -7 -1 -8 -13 -3 -15 6 -17 5 -6 -5 10 -11 15 -10 28 2
13 14 13 16 0 16 -8 0 -12 -5 -9 -10z"/>
<path d="M6145 2091 c-6 -11 9 -23 19 -14 9 9 7 23 -3 23 -6 0 -12 -4 -16 -9z"/>
<path d="M786 2078 c3 -4 9 -8 15 -8 5 0 9 4 9 8 0 5 -7 9 -15 9 -8 0 -12 -4
-9 -9z"/>
<path d="M824 2082 c4 -3 14 -7 22 -8 9 -1 13 0 10 4 -4 3 -14 7 -22 8 -9 1
-13 0 -10 -4z"/>
<path d="M857 2047 c-3 -8 -2 -20 3 -26 5 -9 8 -4 8 13 0 29 -3 32 -11 13z"/>
<path d="M6059 2003 c-12 -16 -12 -17 2 -6 9 7 20 9 24 5 5 -4 5 -1 1 6 -9 16
-11 15 -27 -5z"/>
<path d="M983 1946 c0 -7 6 -13 14 -13 7 0 13 4 13 8 0 4 -6 9 -13 12 -8 3
-14 0 -14 -7z"/>
<path d="M5990 1930 c0 -5 5 -10 11 -10 5 0 7 5 4 10 -3 6 -8 10 -11 10 -2 0
-4 -4 -4 -10z"/>
<path d="M1027 1919 c7 -7 15 -10 18 -7 3 3 -2 9 -12 12 -14 6 -15 5 -6 -5z"/>
<path d="M1010 1900 c0 -5 5 -10 11 -10 5 0 7 5 4 10 -3 6 -8 10 -11 10 -2 0
-4 -4 -4 -10z"/>
<path d="M1051 1884 c0 -11 3 -14 6 -6 3 7 2 16 -1 19 -3 4 -6 -2 -5 -13z"/>
<path d="M5925 1891 c-10 -17 17 -24 31 -7 8 9 9 11 2 6 -16 -13 -31 -13 -23
0 3 6 4 10 1 10 -3 0 -7 -4 -11 -9z"/>
<path d="M5866 1835 c-18 -14 -18 -14 1 -12 11 0 20 7 20 14 0 7 -1 13 -1 13
-1 0 -9 -7 -20 -15z"/>
<path d="M1145 1819 c-5 -8 -4 -10 3 -5 8 5 12 -1 13 -16 1 -18 2 -19 6 -4 6
23 -12 43 -22 25z"/>
<path d="M5825 1812 c-5 -4 -11 -14 -13 -22 -2 -12 1 -11 11 2 8 10 18 14 22
10 5 -4 5 -1 1 6 -8 14 -8 14 -21 4z"/>
<path d="M1233 1755 c0 -8 4 -12 9 -9 5 3 6 10 3 15 -9 13 -12 11 -12 -6z"/>
<path d="M5748 1754 c-38 -20 -36 -28 2 -9 17 9 30 18 30 20 0 7 -1 6 -32 -11z"/>
<path d="M5816 1758 c3 -5 10 -6 15 -3 13 9 11 12 -6 12 -8 0 -12 -4 -9 -9z"/>
<path d="M5780 1740 c-12 -7 -10 -9 7 -7 12 0 19 5 17 9 -6 10 -6 10 -24 -2z"/>
<path d="M5610 1659 l-25 -21 26 15 c20 12 29 13 40 4 11 -10 11 -9 0 6 -16
20 -11 21 -41 -4z"/>
<path d="M5693 1655 c0 -8 4 -12 9 -9 5 3 6 10 3 15 -9 13 -12 11 -12 -6z"/>
<path d="M1410 1640 c0 -5 5 -10 11 -10 5 0 7 5 4 10 -3 6 -8 10 -11 10 -2 0
-4 -4 -4 -10z"/>
<path d="M1457 1599 c4 -13 8 -18 11 -10 2 7 -1 18 -6 23 -8 8 -9 4 -5 -13z"/>
<path d="M5535 1580 c-3 -5 -1 -10 4 -10 6 0 11 5 11 10 0 6 -2 10 -4 10 -3 0
-8 -4 -11 -10z"/>
<path d="M1523 1569 c9 -6 15 -14 12 -20 -4 -5 -1 -9 4 -9 6 0 11 4 11 8 0 12
-22 32 -34 32 -6 0 -3 -5 7 -11z"/>
<path d="M5469 1563 c-13 -16 -12 -17 4 -4 16 13 21 21 13 21 -2 0 -10 -8 -17
-17z"/>
<path d="M5476 1542 c-3 -5 1 -9 9 -9 8 0 12 4 9 9 -3 4 -7 8 -9 8 -2 0 -6 -4
-9 -8z"/>
<path d="M5413 1525 c-3 -9 -3 -18 -1 -21 3 -3 8 4 11 16 6 23 -1 27 -10 5z"/>
<path d="M5440 1520 c-9 -6 -10 -10 -3 -10 6 0 15 5 18 10 8 12 4 12 -15 0z"/>
<path d="M1574 1502 c4 -3 14 -7 22 -8 9 -1 13 0 10 4 -4 3 -14 7 -22 8 -9 1
-13 0 -10 -4z"/>
<path d="M1620 1496 c0 -2 11 -6 25 -8 13 -3 22 -1 19 3 -5 9 -44 13 -44 5z"/>
<path d="M5410 1480 c0 -5 5 -10 11 -10 5 0 7 5 4 10 -3 6 -8 10 -11 10 -2 0
-4 -4 -4 -10z"/>
<path d="M1670 1470 c-13 -8 -12 -10 3 -10 9 0 17 5 17 10 0 12 -1 12 -20 0z"/>
<path d="M1690 1442 c0 -5 7 -9 15 -9 8 0 12 4 9 9 -3 4 -9 8 -15 8 -5 0 -9
-4 -9 -8z"/>
<path d="M1733 1435 c0 -8 4 -15 9 -15 4 0 8 4 8 9 0 6 -4 12 -8 15 -5 3 -9
-1 -9 -9z"/>
<path d="M5290 1442 c0 -5 7 -9 15 -9 8 0 12 4 9 9 -3 4 -9 8 -15 8 -5 0 -9
-4 -9 -8z"/>
<path d="M5185 1400 c-3 -5 -2 -10 4 -10 5 0 13 5 16 10 3 6 2 10 -4 10 -5 0
-13 -4 -16 -10z"/>
<path d="M1795 1380 c-3 -5 -1 -10 4 -10 6 0 11 5 11 10 0 6 -2 10 -4 10 -3 0
-8 -4 -11 -10z"/>
<path d="M5210 1379 c0 -5 5 -7 10 -4 6 3 10 8 10 11 0 2 -4 4 -10 4 -5 0 -10
-5 -10 -11z"/>
<path d="M1850 1361 c0 -11 4 -22 9 -25 4 -3 6 6 3 19 -5 30 -12 33 -12 6z"/>
<path d="M5135 1370 c3 -5 8 -10 11 -10 2 0 4 5 4 10 0 6 -5 10 -11 10 -5 0
-7 -4 -4 -10z"/>
<path d="M5176 1362 c-3 -4 4 -9 15 -9 23 -2 25 3 4 10 -8 4 -16 3 -19 -1z"/>
<path d="M1906 1336 c6 -15 4 -17 -6 -11 -9 6 -11 4 -5 -4 5 -9 10 -10 18 -2
8 8 7 14 -2 24 -10 10 -11 8 -5 -7z"/>
<path d="M1930 1320 c0 -5 5 -10 11 -10 5 0 7 5 4 10 -3 6 -8 10 -11 10 -2 0
-4 -4 -4 -10z"/>
<path d="M5070 1321 c0 -6 4 -13 10 -16 6 -3 7 1 4 9 -7 18 -14 21 -14 7z"/>
<path d="M5015 1310 c-3 -5 -5 -10 -3 -11 33 -8 38 -7 27 7 -14 17 -16 17 -24
4z"/>
<path d="M1995 1280 c-2 -3 5 -7 16 -7 10 -1 19 2 19 6 0 9 -29 10 -35 1z"/>
<path d="M4916 1261 c-3 -5 1 -11 9 -14 9 -4 12 -1 8 9 -6 16 -10 17 -17 5z"/>
<path d="M4975 1261 c-3 -5 -2 -12 3 -15 5 -3 9 1 9 9 0 17 -3 19 -12 6z"/>
<path d="M2070 1206 c0 -2 7 -7 16 -10 8 -3 12 -2 9 4 -6 10 -25 14 -25 6z"/>
<path d="M2117 1189 c7 -7 15 -10 18 -7 3 3 -2 9 -12 12 -14 6 -15 5 -6 -5z"/>
<path d="M4890 1179 c0 -5 5 -7 10 -4 6 3 10 8 10 11 0 2 -4 4 -10 4 -5 0 -10
-5 -10 -11z"/>
<path d="M4820 1119 c0 -5 5 -7 10 -4 6 3 10 8 10 11 0 2 -4 4 -10 4 -5 0 -10
-5 -10 -11z"/>
<path d="M2150 1116 c0 -2 8 -10 18 -17 15 -13 16 -12 3 4 -13 16 -21 21 -21
13z"/>
<path d="M2193 1105 c0 -8 4 -15 9 -15 4 0 8 4 8 9 0 6 -4 12 -8 15 -5 3 -9
-1 -9 -9z"/>
<path d="M4781 1106 c-8 -10 -9 -16 -1 -21 6 -4 9 -1 8 7 -2 7 3 12 10 10 8
-1 11 2 7 8 -8 13 -10 13 -24 -4z"/>
<path d="M2215 1080 c-3 -5 -2 -10 4 -10 5 0 13 5 16 10 3 6 2 10 -4 10 -5 0
-13 -4 -16 -10z"/>
<path d="M4796 1073 c-6 -14 -5 -15 5 -6 7 7 10 15 7 18 -3 3 -9 -2 -12 -12z"/>
<path d="M2235 1060 c-3 -6 1 -7 9 -4 18 7 21 14 7 14 -6 0 -13 -4 -16 -10z"/>
<path d="M2250 1046 c0 -2 7 -7 16 -10 8 -3 12 -2 9 4 -6 10 -25 14 -25 6z"/>
<path d="M2250 1020 c0 -5 5 -10 11 -10 5 0 7 5 4 10 -3 6 -8 10 -11 10 -2 0
-4 -4 -4 -10z"/>
<path d="M4718 1023 c7 -3 16 -2 19 1 4 3 -2 6 -13 5 -11 0 -14 -3 -6 -6z"/>
<path d="M4670 990 c-14 -11 -21 -20 -17 -20 5 0 20 9 34 20 14 11 22 20 17
20 -5 0 -20 -9 -34 -20z"/>
<path d="M2290 980 c0 -5 5 -10 11 -10 5 0 7 5 4 10 -3 6 -8 10 -11 10 -2 0
-4 -4 -4 -10z"/>
<path d="M4620 945 c-7 -8 -9 -15 -6 -15 4 0 14 7 22 15 9 8 11 15 6 15 -5 0
-15 -7 -22 -15z"/>
<path d="M4553 898 c-18 -23 -25 -43 -8 -23 9 11 21 19 26 17 6 -1 8 2 4 8 -8
13 -10 13 -22 -2z"/>
<path d="M2490 860 c0 -5 5 -10 11 -10 5 0 7 5 4 10 -3 6 -8 10 -11 10 -2 0
-4 -4 -4 -10z"/>
<path d="M4500 860 c0 -5 5 -10 11 -10 5 0 7 5 4 10 -3 6 -8 10 -11 10 -2 0
-4 -4 -4 -10z"/>
<path d="M4475 840 c-3 -5 -1 -10 4 -10 6 0 11 5 11 10 0 6 -2 10 -4 10 -3 0
-8 -4 -11 -10z"/>
<path d="M2553 815 c0 -8 4 -12 9 -9 5 3 6 10 3 15 -9 13 -12 11 -12 -6z"/>
<path d="M4450 820 c0 -5 5 -10 11 -10 5 0 7 5 4 10 -3 6 -8 10 -11 10 -2 0
-4 -4 -4 -10z"/>
<path d="M2577 798 c-3 -8 5 -14 20 -14 13 -1 23 -1 21 0 -2 1 -10 7 -19 14
-13 10 -18 10 -22 0z"/>
<path d="M2610 760 c0 -5 5 -10 10 -10 6 0 10 5 10 10 0 6 -4 10 -10 10 -5 0
-10 -4 -10 -10z"/>
<path d="M4375 760 c3 -5 8 -10 11 -10 2 0 4 5 4 10 0 6 -5 10 -11 10 -5 0 -7
-4 -4 -10z"/>
<path d="M2690 751 c0 -5 7 -12 16 -15 14 -5 15 -4 4 9 -14 17 -20 19 -20 6z"/>
<path d="M4300 750 c-9 -6 -10 -10 -3 -10 6 0 15 5 18 10 8 12 4 12 -15 0z"/>
<path d="M2650 740 c0 -5 5 -10 11 -10 5 0 7 5 4 10 -3 6 -8 10 -11 10 -2 0
-4 -4 -4 -10z"/>
<path d="M2736 727 c3 -10 9 -15 12 -12 3 3 0 11 -7 18 -10 9 -11 8 -5 -6z"/>
<path d="M4295 720 c3 -5 8 -10 11 -10 2 0 4 5 4 10 0 6 -5 10 -11 10 -5 0 -7
-4 -4 -10z"/>
<path d="M2790 706 c0 -2 7 -7 16 -10 8 -3 12 -2 9 4 -6 10 -25 14 -25 6z"/>
<path d="M2856 682 c-3 -5 1 -9 9 -9 8 0 12 4 9 9 -3 4 -7 8 -9 8 -2 0 -6 -4
-9 -8z"/>
<path d="M4166 678 c3 -5 10 -6 15 -3 13 9 11 12 -6 12 -8 0 -12 -4 -9 -9z"/>
<path d="M4080 670 c-8 -5 -11 -13 -6 -17 5 -4 11 -2 13 5 3 6 10 9 15 6 7 -4
8 -2 4 4 -9 14 -7 14 -26 2z"/>
<path d="M2935 659 c-6 -8 -4 -10 5 -4 10 6 12 4 6 -11 -6 -15 -5 -17 5 -6 9
9 10 15 2 23 -8 8 -13 7 -18 -2z"/>
<path d="M4140 660 c-9 -6 -10 -10 -3 -10 6 0 15 5 18 10 8 12 4 12 -15 0z"/>
<path d="M2896 647 c3 -10 9 -15 12 -12 3 3 0 11 -7 18 -10 9 -11 8 -5 -6z"/>
<path d="M2973 647 c0 -7 11 -13 23 -13 20 0 25 11 6 11 -4 0 -12 3 -18 7 -6
4 -11 1 -11 -5z"/>
<path d="M4016 643 c-6 -14 -5 -15 5 -6 7 7 10 15 7 18 -3 3 -9 -2 -12 -12z"/>
<path d="M3034 636 c1 -8 5 -18 8 -22 4 -3 5 1 4 10 -1 8 -5 18 -8 22 -4 3 -5
-1 -4 -10z"/>
<path d="M3975 640 c-3 -5 -1 -10 4 -10 6 0 11 5 11 10 0 6 -2 10 -4 10 -3 0
-8 -4 -11 -10z"/>
<path d="M4036 633 c-6 -14 -5 -15 5 -6 7 7 10 15 7 18 -3 3 -9 -2 -12 -12z"/>
<path d="M3138 616 c5 -11 17 -21 26 -22 9 -1 13 2 10 8 -3 5 -8 7 -12 4 -3
-3 -11 2 -19 12 -13 16 -14 16 -5 -2z"/>
<path d="M3197 605 c-4 -8 -3 -16 1 -19 4 -3 9 4 9 15 2 23 -3 25 -10 4z"/>
<path d="M3799 608 c15 -21 31 -23 31 -6 0 6 -3 8 -7 5 -3 -4 -13 -1 -22 6
-14 11 -14 10 -2 -5z"/>
<path d="M3950 616 c0 -2 8 -10 18 -17 15 -13 16 -12 3 4 -13 16 -21 21 -21
13z"/>
<path d="M3850 599 c0 -5 5 -7 10 -4 6 3 10 8 10 11 0 2 -4 4 -10 4 -5 0 -10
-5 -10 -11z"/>
<path d="M3560 591 c0 -6 4 -13 10 -16 6 -3 7 1 4 9 -7 18 -14 21 -14 7z"/>
<path d="M3594 586 c11 -9 24 -16 30 -16 12 0 7 5 -24 19 -24 11 -24 11 -6 -3z"/>
<path d="M3415 580 c-3 -5 -1 -10 4 -10 6 0 11 5 11 10 0 6 -2 10 -4 10 -3 0
-8 -4 -11 -10z"/>
<path d="M3475 581 c-3 -5 -2 -12 3 -15 5 -3 9 1 9 9 0 17 -3 19 -12 6z"/>
<path d="M3536 581 c-3 -5 2 -15 12 -22 15 -12 16 -12 5 2 -7 9 -10 19 -6 22
3 4 4 7 0 7 -3 0 -8 -4 -11 -9z"/>
</g>
</svg>
